<?xml version="1.0" standalone="no"?>
<!DOCTYPE svg PUBLIC "-//W3C//DTD SVG 20010904//EN"
 "http://www.w3.org/TR/2001/REC-SVG-20010904/DTD/svg10.dtd">
<svg version="1.0" xmlns="http://www.w3.org/2000/svg"
 width="1455.000000pt" height="1696.000000pt" viewBox="0 0 1455.000000 1696.000000"
 preserveAspectRatio="xMidYMid meet">

<g transform="translate(0.000000,1696.000000) scale(0.100000,-0.100000)"
fill="#000000" stroke="none">
<path d="M1410 16874 c-205 -37 -288 -63 -425 -131 -204 -102 -336 -233 -420
-418 -30 -65 -37 -74 -67 -80 -96 -21 -206 -113 -277 -232 -60 -101 -82 -172
-88 -288 -6 -116 15 -216 70 -320 31 -58 126 -163 197 -218 l35 -27 -30 -21
c-63 -46 -185 -180 -220 -243 -60 -108 -78 -189 -72 -330 4 -100 10 -137 35
-211 62 -186 184 -360 332 -473 135 -103 353 -176 513 -171 65 2 69 1 105 -33
103 -99 241 -166 404 -194 135 -23 293 -6 426 47 29 12 55 19 58 17 2 -3 14
-38 25 -79 37 -134 120 -264 222 -348 56 -47 180 -111 267 -140 152 -49 389
-64 573 -36 293 44 555 213 682 439 34 62 79 190 90 257 5 33 10 38 60 57 220
84 377 290 403 528 13 116 -2 213 -53 335 -5 14 3 18 46 24 227 31 437 182
531 381 90 191 110 477 47 680 -83 268 -299 473 -574 544 -138 36 -371 37
-513 3 -24 -6 -24 -5 -8 26 26 49 30 110 12 182 -26 99 -54 147 -130 225 -148
148 -354 225 -606 227 -250 1 -459 -74 -606 -218 l-73 -70 -77 73 c-96 92
-225 157 -399 203 -109 29 -136 32 -295 35 -96 1 -186 0 -200 -2z m399 -94
c230 -47 416 -153 499 -284 25 -41 71 -162 73 -193 0 -10 7 8 15 41 35 146
142 275 284 344 131 65 220 85 375 84 155 0 246 -20 374 -83 98 -49 204 -146
242 -224 22 -46 24 -61 24 -207 0 -86 2 -159 5 -161 3 -3 42 3 86 13 336 78
642 10 835 -185 69 -71 88 -96 134 -185 64 -127 80 -198 79 -360 0 -117 -4
-162 -23 -235 -43 -169 -132 -300 -262 -385 -56 -38 -183 -84 -276 -100 l-72
-13 -65 60 c-69 64 -161 115 -236 132 -52 12 -196 13 -225 2 -13 -5 6 -10 56
-14 249 -21 438 -182 494 -419 59 -252 -88 -528 -337 -632 l-37 -16 0 33 c0
64 -14 198 -21 202 -14 8 -51 -147 -61 -255 -12 -133 -30 -193 -85 -301 -74
-144 -187 -251 -349 -331 -163 -81 -325 -110 -544 -97 -371 23 -602 182 -695
477 -14 46 -26 92 -26 104 0 12 27 49 63 87 127 135 174 302 128 456 -9 28 -9
27 -10 -16 -4 -210 -122 -400 -306 -490 -184 -90 -355 -102 -552 -38 -135 44
-294 179 -348 296 -15 32 -35 74 -45 93 -22 45 -39 113 -54 220 l-13 85 -13
-60 c-29 -131 -12 -265 49 -380 14 -27 27 -53 29 -56 4 -9 -136 10 -201 27
-291 75 -523 329 -597 653 -18 78 -8 231 20 306 44 116 152 248 263 321 47 32
48 32 95 18 81 -25 180 -28 271 -10 83 17 193 65 241 105 23 19 20 19 -40 -5
-259 -100 -504 -59 -681 116 -206 203 -211 526 -12 741 73 78 143 122 249 158
49 16 114 41 144 55 30 14 65 26 78 26 32 0 27 17 -7 25 -34 7 -93 -2 -130
-21 -14 -7 -27 -11 -29 -9 -12 11 89 158 150 218 140 139 327 230 553 272 113
21 330 18 444 -5z"/>
<path d="M2449 16001 c-81 -25 -108 -64 -179 -262 -32 -89 -64 -165 -72 -170
-8 -4 -72 -22 -141 -39 -153 -37 -199 -53 -238 -81 -64 -46 -87 -144 -50 -225
14 -32 50 -65 165 -153 l146 -113 0 -52 c0 -28 -5 -109 -10 -181 -11 -142 -5
-176 36 -231 45 -61 153 -86 221 -50 17 8 91 56 164 106 73 49 136 90 141 90
4 0 83 -30 175 -66 236 -93 271 -88 349 52 19 33 34 73 34 88 0 14 -15 77 -34
139 -18 61 -39 135 -46 163 -15 59 -25 40 105 199 44 53 88 107 97 119 30 37
42 105 28 156 -15 56 -72 115 -125 128 -41 10 -197 21 -316 22 l-66 0 -54 85
c-30 47 -59 93 -64 103 -88 148 -170 202 -266 173z m93 -120 c13 -11 48 -58
78 -106 30 -47 78 -121 105 -163 l50 -77 204 -7 c220 -8 245 -14 257 -64 9
-36 -4 -59 -98 -174 -46 -56 -101 -124 -122 -151 l-39 -50 51 -182 c52 -186
55 -199 53 -229 -2 -28 -38 -58 -69 -58 -15 0 -98 27 -183 61 -84 34 -168 66
-185 71 -29 10 -40 4 -203 -106 -95 -64 -179 -116 -187 -116 -9 0 -25 5 -37
12 -43 23 -48 38 -43 133 3 50 9 144 12 210 l7 121 -147 113 c-81 62 -156 122
-166 134 -23 24 -26 75 -7 101 12 17 90 43 207 71 92 21 203 54 210 62 4 5 30
73 59 153 29 80 60 164 68 188 24 66 79 89 125 53z"/>
<path d="M7282 15614 c-29 -14 -64 -40 -77 -58 -13 -18 -96 -178 -184 -357
l-160 -324 -382 -425 c-599 -667 -1227 -1367 -1270 -1416 l-39 -45 0 -1772 0
-1772 -72 -90 c-336 -418 -751 -646 -1057 -581 -199 42 -368 186 -444 377 -89
223 -136 623 -118 1004 8 165 9 173 45 260 87 210 235 457 371 620 37 43 75
96 86 117 27 53 47 189 32 220 -6 13 -21 44 -32 69 -43 94 -151 171 -258 184
-69 9 -164 -16 -230 -61 -59 -41 -209 -193 -272 -277 -24 -32 -45 -56 -46 -55
-1 2 -33 44 -71 95 -153 203 -367 441 -422 469 -20 10 -50 28 -67 40 -35 24
-88 46 -168 70 -44 13 -78 16 -145 11 -137 -9 -234 -61 -294 -159 -23 -37 -38
-50 -68 -58 -96 -26 -194 -126 -230 -236 -16 -47 -27 -64 -48 -73 -101 -45
-176 -128 -206 -230 -20 -69 -21 -189 -1 -266 37 -147 164 -353 292 -476 49
-48 406 -287 553 -371 185 -106 434 -123 619 -42 29 13 54 24 56 24 1 0 5 -87
10 -192 13 -319 13 -329 29 -418 9 -47 25 -141 36 -210 12 -69 32 -167 46
-218 109 -405 446 -719 854 -796 105 -20 295 -20 399 -1 234 45 545 197 760
372 l56 46 6 -804 c4 -720 7 -811 22 -869 86 -320 271 -546 557 -680 41 -19
76 -35 78 -36 2 -1 -80 -281 -181 -621 -102 -340 -256 -854 -342 -1143 -87
-289 -158 -526 -160 -528 -1 -1 -47 4 -101 12 -54 8 -158 20 -231 26 -113 9
-137 8 -175 -5 -23 -9 -56 -20 -72 -25 -76 -24 -101 -81 -165 -365 -81 -358
-291 -1279 -297 -1298 -5 -15 -10 -14 -47 12 -113 77 -275 138 -443 167 -128
22 -363 15 -479 -14 -506 -127 -873 -505 -980 -1007 -8 -38 -20 -133 -26 -211
l-12 -140 -251 -42 c-1151 -191 -1087 -419 169 -606 1065 -159 2815 -266 4985
-307 697 -13 2908 -7 3480 10 1304 38 1466 47 1925 107 851 110 1403 287 1456
465 23 75 -25 155 -130 217 -222 131 -792 270 -1401 342 -378 44 -455 50 -895
65 -253 9 -465 18 -470 19 -6 2 -19 30 -29 62 -10 33 -39 98 -64 147 -157 299
-441 488 -794 527 -121 14 -344 0 -430 -26 -17 -5 -18 38 -18 804 l0 809 -23
44 c-16 31 -37 50 -68 67 -57 29 -242 75 -396 97 l-120 18 -7 221 c-3 122 -9
271 -11 331 -3 61 -16 441 -30 845 -13 404 -27 777 -29 828 l-5 92 92 46 c50
26 119 66 152 89 83 58 222 207 268 286 20 35 41 70 46 78 7 11 14 10 37 -6
101 -71 229 -104 335 -87 55 9 68 8 118 -12 105 -43 238 -40 348 7 43 18 49
19 85 4 55 -22 173 -30 237 -16 134 29 257 121 324 243 72 130 116 309 104
423 -16 155 -132 269 -286 282 l-67 6 -12 66 c-7 36 -15 76 -18 88 -5 20 2 26
67 55 176 77 438 225 565 319 195 144 285 241 354 384 111 227 109 464 -7 694
-39 79 -64 112 -157 208 -166 173 -351 305 -604 432 -338 170 -747 302 -1177
381 -66 12 -126 24 -132 26 -15 4 -14 -72 -13 1585 l1 1186 -28 34 c-24 29
-335 375 -1424 1591 l-249 277 -86 178 c-47 98 -117 241 -154 318 -37 77 -80
156 -96 174 -67 80 -202 105 -302 55z m-252 -944 c120 -61 190 -75 365 -75
140 0 169 3 235 23 94 30 161 63 226 113 28 22 54 39 57 39 3 0 300 -327 659
-727 359 -401 722 -806 808 -901 85 -95 156 -177 158 -181 7 -21 -221 -149
-384 -214 -308 -124 -672 -205 -1134 -254 -240 -25 -1003 -25 -1246 0 -543 56
-965 163 -1299 329 -65 33 -142 76 -170 96 -27 19 -52 37 -53 38 -2 2 364 412
813 913 l817 911 46 -41 c26 -23 72 -54 102 -69z m-1727 -1846 c100 -67 349
-176 532 -232 237 -73 553 -139 609 -128 19 4 43 1 61 -8 16 -8 46 -18 66 -21
l35 -5 -4 -121 c-5 -161 1 -198 43 -245 l34 -39 1 199 0 199 68 -6 c334 -31
950 -34 1230 -7 68 7 125 11 127 9 2 -3 5 -77 6 -166 3 -177 0 -169 57 -119
21 18 22 27 22 158 0 135 0 138 23 142 12 2 85 14 162 26 427 65 818 190 1082
346 41 24 77 44 79 44 2 0 4 -607 4 -1348 l0 -1348 158 -28 c207 -38 499 -111
695 -176 480 -157 839 -359 1090 -614 155 -157 217 -292 225 -488 7 -187 -34
-322 -142 -465 -74 -98 -261 -246 -454 -360 -98 -58 -371 -196 -410 -208 -19
-5 -33 2 -71 38 -55 51 -74 63 -139 83 -74 22 -94 17 -40 -11 63 -33 140 -113
172 -177 31 -64 56 -172 56 -249 l0 -57 37 19 c102 52 242 -3 294 -116 25 -54
25 -169 -1 -270 -45 -175 -136 -303 -257 -361 -113 -54 -305 -40 -364 28 -33
37 -69 121 -85 200 -12 56 -15 113 -11 241 2 92 1 164 -4 160 -16 -17 -59
-165 -70 -240 -18 -129 10 -263 76 -360 l35 -52 -52 -16 c-65 -19 -150 -19
-215 0 -95 28 -129 73 -164 222 -19 78 -21 107 -15 253 3 91 8 181 11 200 l7
35 -27 -43 c-99 -159 -111 -405 -30 -580 14 -30 25 -56 25 -59 0 -3 -30 -3
-67 -1 -169 10 -304 134 -348 319 -27 118 -12 366 27 445 9 16 18 49 22 74 4
24 11 49 15 55 5 5 16 35 26 65 50 153 211 299 395 355 34 10 99 18 170 20 96
3 134 9 235 39 433 128 814 365 909 566 27 57 31 76 31 150 0 71 -5 94 -27
143 -67 143 -332 348 -613 474 -297 133 -608 210 -1047 258 l-57 6 -1 -483 c0
-265 -4 -485 -8 -489 -24 -22 -553 -130 -852 -173 -147 -21 -444 -56 -480 -56
-7 0 -10 176 -10 539 l0 539 63 63 c36 37 79 96 102 139 39 73 40 77 40 175 0
81 -4 109 -22 147 -27 59 -95 134 -145 159 -21 11 -38 21 -38 23 0 2 24 -2 53
-10 147 -40 301 -24 442 46 160 79 277 200 370 385 54 106 62 131 115 373 12
52 12 220 0 282 -12 67 -49 211 -62 245 -27 73 -104 214 -144 266 -95 124
-221 218 -356 267 -65 24 -87 27 -203 27 -115 0 -138 -3 -201 -26 -276 -100
-477 -360 -546 -704 -16 -83 -19 -128 -15 -260 5 -196 32 -310 106 -461 82
-165 189 -289 308 -356 67 -38 68 -52 6 -45 -77 8 -190 -17 -334 -76 -208 -86
-396 -134 -611 -157 -105 -11 -396 -14 -422 -4 -14 5 -16 28 -16 145 0 130 -1
139 -17 130 -57 -33 -58 -35 -60 -154 -2 -62 -3 -113 -3 -113 0 -1 -44 7 -97
17 -195 36 -320 16 -412 -67 -71 -64 -106 -146 -106 -249 1 -138 61 -230 205
-316 84 -50 210 -101 323 -130 l87 -23 0 -409 0 -409 -67 7 c-381 36 -893 122
-1208 203 l-70 18 -3 2077 c-1 1142 1 2077 6 2077 4 0 24 -12 45 -26z m3232
-739 c125 -29 232 -93 331 -196 78 -83 116 -139 169 -252 73 -156 90 -241 89
-457 0 -167 -3 -194 -26 -281 -25 -92 -80 -224 -110 -262 -13 -17 -17 -16 -83
24 -264 161 -640 216 -960 140 -46 -11 -101 -27 -121 -36 -20 -8 -42 -15 -50
-15 -18 0 -49 90 -75 212 -27 134 -23 368 10 493 41 158 118 308 203 399 l48
51 -44 -85 c-58 -112 -76 -184 -76 -311 0 -175 51 -315 156 -428 181 -195 451
-199 636 -10 101 104 167 273 168 431 l0 66 -147 47 c-82 25 -163 51 -181 57
-21 6 -30 14 -25 19 9 9 239 136 257 142 17 6 -32 73 -92 128 -71 66 -162 109
-243 116 -38 4 -56 9 -47 14 21 14 147 10 213 -6z m-6037 -278 c34 -14 93 -46
130 -71 66 -44 252 -224 252 -244 0 -5 41 -61 90 -123 50 -63 106 -136 125
-164 l35 -50 -60 -116 c-58 -113 -61 -117 -107 -134 -126 -48 -212 -144 -229
-257 l-7 -43 38 47 c60 76 194 168 285 197 33 10 38 18 75 113 46 119 121 237
229 361 78 88 175 176 224 201 128 66 306 -14 347 -157 29 -102 9 -162 -100
-292 -133 -159 -266 -379 -361 -599 l-56 -129 -8 -181 c-19 -452 42 -897 153
-1111 99 -190 298 -333 508 -366 263 -41 593 104 892 390 78 75 77 75 122 -24
46 -103 58 -232 30 -340 -18 -70 -29 -81 -185 -186 -183 -124 -430 -230 -603
-260 -103 -17 -323 -7 -422 20 -177 49 -342 149 -472 284 -127 133 -211 280
-252 443 -51 199 -96 537 -106 789 -3 77 -8 169 -10 205 l-5 66 48 35 c44 33
105 104 148 174 l19 30 -38 -28 c-151 -114 -294 -195 -407 -233 -83 -28 -242
-25 -340 5 -99 30 -119 41 -333 179 -100 65 -209 131 -242 146 -141 68 -331
329 -375 516 -19 76 -17 175 4 237 37 111 158 201 254 190 109 -12 280 -132
466 -328 l108 -114 -27 55 c-62 124 -157 242 -264 328 -72 58 -184 117 -244
127 -20 4 -40 11 -42 16 -8 12 30 89 65 131 17 20 55 49 86 64 45 22 63 26
104 21 123 -15 347 -185 519 -395 41 -50 77 -90 79 -88 2 2 -12 38 -31 79 -93
201 -244 357 -444 455 -40 20 -73 40 -73 43 0 18 94 87 137 102 69 24 189 17
271 -16z m5981 -1034 c52 -8 129 -26 170 -40 87 -28 261 -115 286 -143 17 -19
16 -21 -24 -68 -314 -375 -796 -338 -1070 83 -28 43 -51 84 -51 92 0 17 28 28
150 59 170 44 339 50 539 17z m-743 -957 c75 -20 151 -64 206 -119 51 -51 103
-140 94 -162 -8 -21 -158 -89 -285 -129 -359 -113 -788 -133 -1141 -52 -54 13
-55 13 -52 47 6 58 60 163 110 212 26 25 74 59 107 74 55 26 69 28 181 28 118
0 122 -1 192 -36 l72 -35 54 52 c58 56 132 99 206 120 61 17 193 17 256 0z
m2057 -251 c571 -85 1003 -262 1284 -529 111 -105 128 -137 128 -246 0 -76 -3
-91 -30 -139 -75 -136 -392 -344 -690 -452 -172 -62 -253 -80 -395 -89 -180
-11 -287 -50 -412 -147 l-58 -44 0 830 0 831 35 0 c19 0 81 -7 138 -15z
m-1683 -589 l0 -514 -127 -8 c-163 -11 -1135 -9 -1228 2 l-70 9 -3 403 -2 404
27 -6 c137 -28 448 -36 628 -16 264 29 554 113 717 209 29 17 54 31 56 31 1 0
2 -231 2 -514z m-2719 -395 c447 -107 996 -183 1518 -212 313 -17 970 -7 1269
20 449 41 935 118 1264 202 42 10 81 19 87 19 8 0 11 -59 11 -185 0 -102 -4
-185 -8 -185 -4 0 -96 -20 -205 -44 -398 -90 -818 -151 -1287 -188 -258 -20
-1091 -17 -1355 5 -417 35 -845 98 -1175 173 -85 19 -179 40 -207 47 l-53 11
0 183 c0 101 4 183 9 183 5 0 64 -13 132 -29z m66 -465 c579 -130 1124 -192
1788 -203 761 -12 1484 60 2136 213 81 19 149 34 153 34 3 0 6 -78 6 -173 l0
-173 -117 -28 c-622 -147 -1184 -214 -1890 -223 -805 -11 -1429 53 -2145 219
l-138 31 0 174 c0 95 2 173 5 173 2 0 94 -20 202 -44z m-49 -421 c466 -107
989 -178 1507 -206 317 -17 964 -6 1260 20 370 33 669 75 978 137 98 20 181
34 183 31 9 -8 4 -399 -5 -462 -39 -270 -186 -503 -412 -654 -175 -118 -472
-253 -759 -346 -80 -26 -163 -53 -185 -61 -40 -14 -40 -14 -5 -8 88 14 378 91
506 135 282 96 488 198 617 305 101 84 202 222 253 346 10 27 21 48 24 48 3 0
13 -22 22 -48 10 -27 31 -68 47 -93 l30 -44 -31 -55 c-109 -195 -257 -330
-464 -425 -148 -68 -657 -232 -819 -264 -291 -57 -389 -66 -755 -66 -332 0
-402 5 -630 42 -184 30 -348 73 -600 158 -379 127 -529 205 -661 342 -102 104
-164 204 -209 333 -44 130 -50 192 -50 541 0 181 1 329 3 329 2 0 71 -16 155
-35z m4077 8 c-3 -10 -9 -30 -12 -44 -3 -15 -13 -51 -23 -80 l-19 -54 0 88
c-1 82 0 88 22 97 33 13 40 12 32 -7z m-3360 -1624 c58 -16 139 -73 184 -130
l39 -49 -43 -142 c-24 -79 -80 -267 -125 -418 -45 -151 -83 -276 -84 -278 -2
-1 -34 18 -72 43 -81 53 -189 90 -315 107 -89 12 -90 13 -84 38 11 41 237 795
239 798 2 1 27 11 57 22 61 22 144 25 204 9z m2718 -48 c21 -5 40 -11 43 -13
3 -4 34 -776 34 -874 l0 -50 -77 9 c-88 11 -259 -3 -357 -29 -48 -13 -60 -13
-67 -2 -5 7 -9 65 -9 128 -1 63 -3 131 -5 150 -1 19 -6 146 -10 281 l-7 246
49 43 c107 95 275 141 406 111z m-2003 -95 c199 -28 328 -36 565 -36 298 0
547 25 799 80 49 11 92 18 94 15 6 -6 81 -2097 76 -2106 -2 -3 -36 -11 -76
-18 -106 -19 -307 -70 -353 -90 -50 -22 -92 -71 -101 -116 -3 -18 13 -536 37
-1149 23 -614 40 -1118 37 -1121 -3 -3 -297 -10 -654 -15 -588 -9 -898 -16
-1546 -36 -166 -5 -218 -4 -218 5 0 10 130 461 305 1061 300 1025 287 979 280
1034 -13 103 -54 149 -209 235 l-94 51 34 113 c32 109 480 1608 591 1978 l55
185 132 -27 c72 -14 183 -34 246 -43z m-1036 -821 c97 -24 172 -60 234 -113
34 -28 34 -29 21 -70 -7 -23 -14 -42 -17 -42 -2 0 -37 22 -77 49 -41 27 -108
60 -152 75 -81 27 -218 50 -234 40 -12 -7 -11 16 2 55 11 30 13 31 69 31 31 0
101 -11 154 -25z m3081 -93 l40 -7 3 -66 3 -66 -148 5 c-124 3 -165 1 -250
-17 -55 -12 -104 -21 -107 -21 -3 0 -6 29 -6 64 l0 64 88 21 c48 11 98 22 112
24 44 7 223 6 265 -1z m-3101 -80 c82 -28 174 -81 213 -124 l21 -23 -155 -516
-155 -517 -82 33 c-79 32 -240 81 -343 105 -29 7 -53 17 -53 24 0 9 180 618
287 970 l27 89 79 -6 c45 -4 113 -18 161 -35z m3085 -136 l65 -11 3 -95 c2
-52 7 -214 13 -360 5 -146 10 -302 10 -348 l0 -82 -182 -1 c-101 0 -213 -3
-250 -7 l-67 -8 -5 51 c-6 54 -26 659 -26 762 l0 62 93 20 c146 33 235 37 346
17z m-4034 -916 c337 -29 647 -108 900 -229 167 -80 230 -122 255 -170 11 -22
20 -53 20 -68 0 -31 -128 -483 -141 -497 -4 -5 -36 9 -72 32 -103 65 -292 156
-437 210 -253 94 -496 141 -770 149 -91 2 -164 7 -164 11 1 4 26 113 55 241
47 208 56 239 83 269 56 64 79 68 271 52z m4262 -75 c131 -18 276 -47 370 -76
107 -33 103 -20 103 -379 l0 -307 -78 18 c-240 55 -487 83 -752 82 -270 -1
-459 -22 -688 -79 -57 -14 -105 -24 -107 -22 -2 2 -9 135 -16 296 -13 319 -12
330 40 356 62 32 330 91 526 115 123 15 473 12 602 -4z m-4167 -609 c299 -56
596 -171 846 -327 l71 -45 -104 -359 c-58 -198 -158 -542 -222 -765 l-118
-405 -1595 -3 -1595 -2 14 87 c57 355 285 676 610 856 188 104 359 147 580
147 161 0 270 -19 410 -72 129 -49 196 -91 289 -183 134 -133 201 -273 227
-477 l14 -103 7 85 c16 186 -37 374 -143 508 -23 28 -41 54 -41 57 0 9 98 -3
220 -27 125 -24 268 -72 366 -121 107 -54 150 -62 218 -43 90 27 113 57 197
268 58 146 73 193 72 234 -1 99 -59 165 -222 254 -190 103 -374 152 -577 152
l-120 1 33 151 c19 83 40 154 46 159 7 5 95 6 197 3 140 -3 218 -11 320 -30z
m4215 -156 c140 -18 301 -47 388 -71 l37 -10 0 -77 0 -77 -184 3 c-134 3 -214
-1 -296 -13 -228 -33 -436 -123 -482 -210 -30 -54 -27 -84 23 -288 27 -111 58
-215 69 -232 27 -43 88 -75 143 -75 34 0 71 13 149 50 143 70 268 100 441 107
l138 6 -3 -57 -3 -58 -87 -32 c-207 -78 -370 -222 -473 -416 -37 -71 -65 -140
-42 -106 6 10 30 46 52 80 22 33 74 95 115 136 117 117 232 186 402 240 159
50 255 64 443 64 207 1 284 -17 450 -99 223 -111 363 -267 451 -505 17 -47 34
-100 37 -117 l7 -33 -1454 0 -1454 0 -6 93 c-5 72 -42 1062 -58 1532 l-3 80
126 32 c325 81 703 100 1074 53z m-4578 -211 c172 -19 348 -83 501 -182 132
-86 135 -108 47 -332 -105 -264 -131 -280 -312 -197 -60 27 -152 63 -204 80
-104 33 -289 72 -347 72 -20 0 -43 4 -50 8 -9 6 2 70 50 280 l61 271 41 4 c83
7 119 7 213 -4z m4972 -105 l31 -6 0 -244 0 -244 -82 0 c-192 0 -366 -38 -525
-115 -53 -26 -106 -45 -126 -45 -59 0 -73 27 -128 241 -44 169 -48 197 -38
223 27 64 217 149 401 180 85 14 410 21 467 10z m-4192 -1619 l-30 -105 -1559
0 -1558 0 0 98 c0 54 3 102 7 105 3 4 718 7 1588 7 l1583 0 -31 -105z m5587
43 c3 -13 6 -51 6 -85 l0 -63 -1459 0 -1458 0 -7 61 c-3 34 -6 73 -6 85 l0 24
1459 0 1459 0 6 -22z m-5644 -230 c0 -7 -11 -48 -23 -91 l-23 -77 -1509 0
c-829 0 -1510 1 -1511 3 -6 6 -22 162 -18 169 3 4 698 8 1545 8 1225 0 1539
-3 1539 -12z m5646 -35 c-3 -21 -8 -62 -12 -90 l-6 -53 -1443 0 -1442 0 -7 61
c-3 34 -6 75 -6 90 l0 29 1461 0 1461 0 -6 -37z"/>
<path d="M5985 12395 c-235 -51 -417 -245 -469 -500 -5 -20 6 -8 33 40 188
333 503 465 856 358 42 -12 -17 37 -79 66 -108 51 -219 63 -341 36z"/>
<path d="M8452 12394 c-29 -7 -63 -19 -75 -25 -43 -22 -107 -64 -107 -70 0 -3
35 2 78 12 305 73 598 -62 769 -354 25 -42 48 -76 50 -74 8 8 -41 146 -75 212
-118 226 -407 362 -640 299z"/>
<path d="M7338 12216 c-17 -12 -18 -55 -20 -592 l-3 -578 -32 -7 c-49 -10 -95
-41 -127 -87 -24 -34 -30 -54 -33 -104 l-2 -63 14 44 c49 148 214 204 333 114
42 -31 61 -61 77 -120 l13 -48 1 61 c1 54 -3 68 -31 110 -35 51 -79 83 -131
93 l-32 7 -5 591 c-5 560 -6 591 -22 579z"/>
<path d="M6133 12125 c-180 -49 -332 -159 -443 -320 -52 -76 -119 -226 -147
-330 -25 -92 -27 -115 -27 -295 1 -180 3 -203 27 -295 195 -728 953 -895 1339
-295 143 223 199 558 138 837 -78 358 -312 630 -600 697 -80 19 -218 19 -287
1z m225 -34 c9 -5 -9 -10 -47 -14 -70 -6 -157 -43 -219 -94 -51 -42 -124 -131
-117 -143 3 -5 58 -36 123 -70 147 -78 155 -84 111 -98 -19 -6 -100 -32 -181
-57 l-148 -46 0 -59 c0 -203 100 -409 244 -502 70 -45 169 -78 235 -78 164 0
325 107 413 276 51 97 68 172 68 301 0 148 -28 250 -101 363 l-23 35 37 -34
c154 -144 268 -482 251 -741 -9 -134 -56 -344 -84 -374 -5 -4 -37 1 -72 13
-355 117 -772 75 -1074 -109 l-68 -41 -18 23 c-29 39 -87 181 -110 275 -19 75
-22 115 -22 268 0 202 14 278 78 428 55 126 95 186 191 283 74 75 105 99 177
134 47 23 110 48 140 55 61 15 196 19 216 6z m322 -1321 c107 -21 210 -56 210
-73 0 -24 -85 -152 -143 -214 -70 -75 -181 -152 -265 -183 -240 -90 -509 -11
-693 201 -58 68 -60 72 -43 90 9 11 72 46 138 79 243 119 515 153 796 100z"/>
<path d="M7848 9220 c-36 -22 -279 -81 -412 -102 -113 -17 -190 -21 -388 -22
-136 -1 -237 -5 -225 -9 70 -26 216 -50 337 -54 154 -6 270 6 398 43 83 24
265 105 307 138 22 17 10 21 -17 6z"/>
<path d="M3705 13096 c-155 -73 -194 -269 -80 -404 72 -86 221 -110 321 -53
187 108 171 382 -29 466 -56 23 -152 19 -212 -9z m182 -57 c67 -25 114 -94
115 -169 0 -62 -25 -115 -75 -154 -35 -28 -46 -31 -106 -31 -86 0 -130 27
-168 103 -21 43 -25 61 -19 99 16 119 142 194 253 152z"/>
<path d="M12820 12684 c-37 -27 -44 -39 -80 -140 l-33 -92 -82 -21 c-146 -37
-175 -57 -175 -124 0 -54 9 -66 100 -137 l81 -62 -3 -120 -3 -120 33 -29 c52
-46 89 -41 196 30 l88 59 67 -25 c142 -54 149 -56 182 -43 40 17 69 56 69 94
0 17 -11 67 -25 111 -14 44 -25 87 -25 95 0 9 29 51 65 94 87 105 95 143 40
198 -29 29 -69 38 -178 38 l-77 0 -54 83 c-29 45 -62 90 -73 100 -30 27 -83
32 -113 11z m78 -62 c10 -10 42 -56 72 -104 l53 -85 120 -5 c101 -4 122 -8
134 -24 7 -10 13 -21 13 -25 0 -4 -34 -51 -76 -104 l-76 -96 33 -116 33 -116
-23 -18 c-24 -20 -30 -19 -189 46 l-56 23 -95 -64 c-94 -62 -132 -76 -147 -52
-8 13 -6 202 2 230 3 12 -22 38 -91 92 -73 59 -95 82 -95 101 0 31 15 39 126
66 49 12 96 25 104 29 8 5 32 56 53 114 45 123 67 146 105 108z"/>
<path d="M4325 12576 c-5 -3 -22 -7 -38 -10 -15 -4 -45 -22 -67 -42 -143 -130
-54 -366 139 -366 66 0 102 15 148 64 61 63 77 136 48 219 -19 52 -37 74 -91
105 -37 22 -115 39 -139 30z m120 -107 c64 -57 66 -151 4 -203 -58 -49 -131
-47 -185 5 -89 86 -28 228 98 229 39 0 54 -6 83 -31z"/>
<path d="M12145 10993 c-119 -62 -154 -202 -79 -316 30 -46 110 -87 169 -87
55 0 135 40 168 83 37 48 53 128 38 183 -13 49 -69 116 -115 138 -44 21 -141
20 -181 -1z m150 -67 c94 -39 100 -198 9 -241 -39 -18 -100 -19 -134 -2 -63
32 -87 120 -52 186 34 63 107 86 177 57z"/>
<path d="M12187 10306 c-128 -63 -184 -188 -142 -316 45 -135 187 -208 329
-169 54 15 151 111 165 164 28 102 9 184 -60 259 -39 43 -62 59 -102 71 -72
21 -134 19 -190 -9z m217 -90 c122 -93 83 -286 -65 -326 -47 -13 -112 -1 -155
27 -69 45 -96 167 -53 242 53 96 186 123 273 57z"/>
<path d="M12640 9131 c-179 -58 -248 -266 -137 -413 71 -95 215 -127 325 -72
190 94 188 368 -3 466 -43 22 -144 33 -185 19z m143 -85 c38 -16 94 -76 103
-112 4 -14 4 -49 2 -79 -13 -154 -201 -218 -309 -105 -86 90 -65 224 46 291
36 22 111 25 158 5z"/>
<path d="M2205 7681 c-11 -5 -27 -17 -36 -27 -17 -20 -99 -197 -99 -214 0 -11
-5 -12 -139 -39 -132 -27 -177 -65 -167 -146 4 -35 16 -51 100 -130 l95 -90
-14 -114 c-11 -94 -12 -120 -1 -145 21 -50 52 -71 105 -71 38 0 62 10 140 58
52 31 98 57 104 57 5 0 54 -20 108 -45 125 -57 167 -59 215 -11 42 42 43 70
10 210 l-24 98 78 87 c109 122 118 146 80 208 -28 46 -63 60 -170 68 -52 4
-104 11 -115 15 -12 5 -44 49 -75 105 -35 64 -64 104 -84 116 -32 20 -77 24
-111 10z m103 -105 c15 -24 46 -78 69 -119 l42 -74 58 -7 c32 -3 90 -9 128
-12 83 -7 115 -29 98 -66 -6 -13 -41 -57 -79 -98 -38 -41 -75 -83 -83 -92 -11
-15 -9 -37 15 -143 41 -184 25 -197 -150 -115 -59 27 -111 50 -115 50 -3 0
-56 -29 -116 -65 -61 -36 -117 -65 -126 -65 -9 0 -24 8 -33 19 -16 17 -16 27
0 149 14 111 14 133 3 144 -8 7 -48 42 -89 77 -88 76 -100 89 -100 110 0 34
21 44 149 70 l131 26 50 113 c57 131 64 142 96 142 18 0 32 -12 52 -44z"/>
<path d="M9774 5891 c-55 -25 -101 -83 -115 -147 -21 -95 27 -194 116 -235 79
-37 173 -21 238 40 138 127 41 361 -148 361 -27 0 -68 -9 -91 -19z m177 -87
c62 -56 65 -147 6 -201 -46 -42 -94 -51 -144 -27 -147 73 -81 283 80 253 21
-3 47 -15 58 -25z"/>
<path d="M3089 5731 c-113 -37 -188 -141 -177 -246 29 -250 370 -293 454 -58
37 106 -13 231 -116 283 -43 22 -124 33 -161 21z m118 -76 c49 -21 71 -42 89
-84 33 -79 8 -159 -66 -209 -29 -20 -44 -23 -93 -20 -90 7 -146 60 -155 146
-12 127 108 216 225 167z"/>
<path d="M3070 4988 c-25 -13 -57 -41 -73 -63 -118 -171 93 -378 264 -258 84
60 105 183 43 261 -37 45 -106 82 -154 82 -20 0 -56 -10 -80 -22z m168 -81
c19 -20 26 -39 30 -80 4 -49 1 -57 -25 -87 -24 -27 -38 -33 -79 -37 -66 -6
-108 20 -125 77 -17 56 1 114 44 141 45 28 119 22 155 -14z"/>
</g>
</svg>
