<?xml version="1.0" encoding="UTF-8" standalone="no"?>
<!DOCTYPE svg PUBLIC "-//W3C//DTD SVG 1.1//EN" "http://www.w3.org/Graphics/SVG/1.1/DTD/svg11.dtd">
<svg width="100%" height="100%" viewBox="0 0 1430 1519" version="1.1" xmlns="http://www.w3.org/2000/svg" xmlns:xlink="http://www.w3.org/1999/xlink" xml:space="preserve" xmlns:serif="http://www.serif.com/" style="fill-rule:evenodd;clip-rule:evenodd;stroke-linejoin:round;stroke-miterlimit:2;">
    <g transform="matrix(0.0844856,0,0,-0.0844856,-113.916,1696.3)">
        <g transform="matrix(11.8184,0,0,-11.0818,1360.17,16847.9)">
            <ellipse cx="713.5" cy="759" rx="714.5" ry="761" style="fill:rgb(250,255,3);fill-opacity:0.22;"/>
        </g>
        <g transform="matrix(0.643238,9.75731e-20,8.90409e-20,0.712966,2528.81,3742.65)">
            <path d="M11711,17839C11477,17793 11265,17637 11157,17432C11104,17330 11085,17269 11069,17154C11037,16914 11157,16600 11364,16385L11425,16320L13841,16320L13890,16366C13994,16463 14034,16562 14028,16704C14025,16784 14020,16805 13989,16871C13909,17039 13738,17141 13558,17128L13499,17124L13507,17179C13521,17277 13514,17389 13489,17455C13370,17776 13001,17917 12689,17760C12621,17725 12530,17644 12485,17577L12452,17528L12435,17560C12426,17578 12388,17622 12352,17659C12274,17737 12161,17798 12036,17830C11952,17851 11796,17856 11711,17839ZM12024,17750C12250,17693 12401,17537 12443,17320C12451,17279 12459,17256 12459,17270C12461,17314 12490,17413 12520,17479C12557,17558 12652,17654 12734,17693C12939,17793 13167,17750 13321,17582C13434,17459 13467,17302 13414,17137C13397,17083 13391,17076 13329,17034C13217,16960 13162,16864 13154,16732L13150,16655L13168,16715C13233,16931 13414,17064 13620,17047C13708,17040 13772,17009 13840,16940C13926,16855 13945,16807 13945,16680C13945,16561 13934,16531 13860,16448L13818,16400L11452,16400L11399,16463C11229,16665 11146,16864 11147,17070C11147,17236 11190,17362 11291,17493C11462,17715 11757,17819 12024,17750Z" style="fill-rule:nonzero;"/>
        </g>
        <g transform="matrix(0.770456,8.75924e-19,8.5213e-19,0.786537,2442.9,443.857)">
            <path d="M9102,17644C9073,17630 9038,17604 9025,17586C9012,17568 8929,17408 8841,17229L8681,16905L8299,16480C7700,15813 7072,15113 7029,15064L6990,15019L6990,11475L6918,11385C6582,10967 6167,10739 5861,10804C5712,10836 5566,10934 5479,11061C5457,11094 5442,11120 5445,11120C5448,11120 5494,11084 5547,11040C5621,10979 5651,10960 5670,10962C5687,10964 5696,10972 5698,10986C5700,10998 5665,11222 5621,11484C5576,11745 5540,11961 5540,11963C5540,11968 5541,11968 6080,11876C6371,11827 6521,11806 6533,11812C6542,11817 6550,11829 6550,11839C6550,11850 6408,12030 6234,12241L5918,12624L6372,12792C6621,12884 6832,12964 6840,12969C6860,12980 6864,13014 6848,13028C6841,13034 6631,13115 6382,13207C6133,13300 5929,13381 5930,13386C5930,13393 6366,13927 6508,14094C6531,14121 6550,14151 6550,14161C6550,14206 6541,14205 6035,14120C5768,14075 5547,14040 5545,14042C5543,14044 5577,14263 5622,14529C5705,15021 5706,15040 5668,15048C5660,15050 5532,14951 5384,14829C4881,14412 4887,14417 4879,14432C4875,14439 4808,14616 4731,14825C4534,15354 4540,15337 4525,15350C4488,15380 4478,15359 4301,14885C4206,14629 4126,14420 4124,14420C4120,14420 3973,14541 3462,14964C3354,15054 3344,15059 3323,15037C3306,15020 3308,14999 3387,14532C3432,14264 3467,14044 3465,14041C3463,14039 3242,14075 2975,14120C2470,14204 2460,14205 2460,14161C2460,14152 2601,13974 2774,13765C2947,13556 3085,13382 3082,13379C3078,13376 2877,13300 2635,13210C2393,13121 2185,13041 2173,13033C2148,13018 2143,12986 2163,12973C2169,12969 2381,12889 2633,12794L3091,12623L2783,12251C2614,12046 2471,11867 2465,11853C2443,11796 2451,11797 2980,11885L3471,11967L3466,11941C3443,11832 3310,11001 3312,10985C3314,10972 3324,10964 3340,10962C3360,10960 3418,11003 3620,11171C3760,11287 3909,11409 3950,11443C3991,11476 4046,11522 4073,11543C4099,11565 4123,11580 4127,11577C4130,11573 4209,11367 4302,11118C4395,10869 4478,10660 4487,10653C4497,10645 4509,10644 4520,10650C4530,10655 4593,10810 4685,11057C4832,11449 4835,11454 4842,11410C4846,11385 4859,11309 4870,11240C4881,11171 4902,11073 4916,11022C5025,10617 5362,10303 5770,10226C5875,10206 6065,10206 6169,10225C6403,10270 6714,10422 6929,10597L6985,10643L6991,9839C6995,9119 6998,9028 7013,8970C7099,8650 7284,8424 7570,8290C7611,8271 7646,8255 7648,8254C7650,8253 7568,7973 7467,7633C7365,7293 7211,6779 7125,6490C7038,6201 6967,5964 6965,5962C6964,5961 6918,5966 6864,5974C6684,6001 6508,6011 6452,5999C6381,5984 6325,5941 6295,5877C6281,5849 6248,5726 6221,5605C6146,5274 5930,4327 5924,4307C5919,4292 5914,4293 5877,4319C5764,4396 5602,4457 5434,4486C5306,4508 5071,4501 4955,4472C4449,4345 4082,3967 3975,3465C3967,3427 3955,3332 3949,3254L3937,3114L3686,3072C2535,2881 2599,2653 3855,2466C4920,2307 6670,2200 8840,2159C9537,2146 11748,2152 12320,2169C13390,2200 13938,2224 14690,2271C16584,2388 17730,2580 17730,2781C17730,2870 17543,2949 17141,3030C17033,3051 16909,3074 16865,3081C16821,3087 16782,3095 16778,3099C16775,3102 16782,3197 16796,3310C16809,3423 16831,3616 16845,3740C16934,4515 16982,4931 16995,5040C17061,5589 17262,7355 17262,7395C17263,7472 17226,7535 17143,7600L17111,7625L17155,8020C17180,8237 17225,8636 17255,8907L17311,9399L17172,9607C17044,9800 17032,9821 17010,9905C16972,10052 16960,10054 16891,9927C16844,9840 16828,9821 16668,9670C16573,9580 16492,9501 16488,9494C16482,9485 16300,7910 16300,7873C16300,7867 16190,7877 16140,7887L16110,7893L16110,8488L16170,8548L16170,9297C16170,10108 16169,10124 16115,10230C16082,10295 16005,10378 15939,10421C15789,10517 15580,10513 15424,10412C15356,10367 15324,10335 15281,10265C15226,10177 15210,10106 15210,9945L15210,9803L15121,9798C15019,9792 14949,9761 14905,9704C14849,9630 14850,9649 14850,8843C14850,8234 14852,8094 14864,8067C14884,8020 14928,7983 14981,7969C15021,7958 15034,7959 15074,7974C15127,7994 15165,8035 15180,8088C15186,8112 15190,8361 15190,8783C15190,9214 15193,9440 15200,9440C15207,9440 15210,9283 15210,8990L15210,8539L15260,8489L15260,7943L14973,7937C14098,7917 13392,7771 13179,7564C13135,7521 13100,7454 13100,7412C13100,7396 13141,7030 13190,6599C13240,6168 13310,5561 13345,5250C13381,4939 13417,4629 13425,4560C13455,4314 13560,3388 13560,3372C13560,3356 13536,3356 13234,3367C13055,3374 12883,3380 12852,3382L12797,3385L12774,3453C12650,3821 12323,4075 11918,4120C11797,4134 11574,4120 11488,4094C11471,4089 11470,4132 11470,4898L11470,5707L11447,5751C11431,5782 11410,5801 11379,5818C11322,5847 11137,5893 10983,5915L10863,5933L10856,6154C10853,6276 10847,6425 10845,6485C10842,6546 10829,6926 10815,7330C10802,7734 10788,8107 10786,8158L10781,8250L10873,8296C10923,8322 10992,8362 11025,8385C11108,8443 11247,8592 11293,8671C11313,8706 11334,8741 11339,8749C11346,8760 11353,8759 11376,8743C11477,8672 11605,8639 11711,8656C11766,8665 11779,8664 11829,8644C11934,8601 12067,8604 12177,8651C12220,8669 12226,8670 12262,8655C12317,8633 12435,8625 12499,8639C12633,8668 12756,8760 12823,8882C12895,9012 12939,9191 12927,9305C12911,9460 12795,9574 12641,9587L12574,9593L12562,9659C12555,9695 12547,9735 12544,9747C12539,9767 12546,9773 12611,9802C12787,9879 13049,10027 13176,10121C13371,10265 13461,10362 13530,10505C13641,10732 13639,10969 13523,11199C13484,11278 13459,11311 13366,11407C13200,11580 13015,11712 12762,11839C12424,12009 12015,12141 11585,12220C11519,12232 11459,12244 11453,12246C11443,12249 11440,12535 11440,13634L11440,15018L11413,15051C11389,15080 11077,15429 9989,16642L9740,16919L9654,17097C9607,17195 9537,17338 9500,17415C9463,17492 9420,17571 9404,17589C9337,17669 9202,17694 9102,17644ZM8850,16700C8970,16639 9040,16625 9215,16625C9355,16625 9384,16628 9450,16648C9544,16678 9611,16711 9676,16761C9704,16783 9730,16800 9733,16800C9736,16800 10033,16473 10392,16073C10751,15672 11114,15267 11200,15172C11285,15077 11356,14995 11358,14991C11365,14970 11137,14842 10974,14777C10666,14653 10302,14572 9840,14523C9600,14498 8837,14498 8594,14523C8051,14579 7629,14686 7295,14852C7230,14885 7153,14928 7125,14948C7098,14967 7073,14985 7072,14986C7070,14988 7436,15398 7885,15899L8702,16810L8748,16769C8774,16746 8820,16715 8850,16700ZM4675,14755C4761,14524 4836,14330 4842,14323C4848,14316 4858,14310 4865,14310C4872,14310 4960,14379 5062,14463C5164,14546 5322,14677 5414,14753C5506,14829 5587,14893 5594,14896C5603,14900 5586,14774 5530,14443C5487,14191 5455,13980 5457,13973C5460,13967 5468,13959 5477,13956C5485,13952 5692,13984 5937,14025C6182,14067 6388,14100 6395,14098C6402,14096 6289,13952 6143,13775C5997,13599 5867,13442 5855,13425C5833,13398 5831,13397 5824,13415C5779,13548 5673,13639 5543,13655C5474,13664 5379,13639 5313,13594C5254,13553 5104,13401 5041,13317C5017,13285 4996,13261 4995,13262C4994,13264 4959,13310 4917,13365C4717,13630 4516,13817 4342,13898C4292,13922 4273,13925 4180,13925C4081,13925 4071,13923 4008,13892C3927,13852 3852,13774 3819,13695C3802,13653 3792,13641 3781,13646C3772,13650 3725,13655 3675,13657C3599,13661 3576,13658 3525,13639C3346,13572 3258,13363 3336,13190C3357,13143 3382,13111 3443,13055L3522,12981L3491,12941C3385,12808 3390,12622 3502,12494C3566,12421 4100,12079 4221,12033C4396,11967 4583,11968 4739,12036C4768,12049 4794,12060 4796,12060C4798,12060 4800,12012 4800,11953C4801,11893 4805,11798 4810,11740C4819,11636 4818,11634 4785,11545C4634,11139 4508,10805 4506,10802C4504,10801 4429,10996 4339,11237C4250,11478 4172,11678 4166,11683C4160,11687 4147,11689 4138,11688C4129,11686 3963,11555 3770,11395C3577,11236 3415,11104 3410,11102C3404,11100 3403,11111 3406,11127C3409,11142 3444,11350 3484,11587C3545,11949 3555,12023 3544,12037C3532,12054 3504,12050 3069,11977C2815,11935 2605,11901 2603,11903C2602,11905 2733,12068 2895,12264C3057,12461 3190,12630 3190,12640C3190,12649 3184,12662 3178,12668C3167,12677 2855,12795 2443,12946C2370,12973 2310,12998 2310,13001C2310,13005 2347,13021 2393,13038C2438,13055 2628,13126 2815,13196C3002,13265 3163,13326 3172,13331C3182,13336 3190,13350 3190,13361C3190,13382 3160,13421 2816,13835C2693,13984 2606,14096 2614,14098C2621,14100 2828,14067 3073,14025C3317,13984 3525,13952 3533,13956C3542,13959 3550,13967 3553,13973C3555,13980 3522,14192 3479,14445C3437,14698 3403,14906 3404,14907C3405,14908 3569,14775 3769,14610C3969,14445 4138,14310 4145,14310C4152,14310 4162,14316 4168,14323C4174,14330 4248,14522 4333,14750C4419,14978 4492,15173 4496,15184C4501,15198 4505,15199 4510,15189C4515,15181 4588,14986 4675,14755ZM7123,14854C7179,14817 7340,14737 7455,14692C7661,14610 7936,14538 8200,14496C8291,14482 8379,14468 8395,14465L8425,14460L8422,13980L8420,13500L7912,13502C7333,13505 7387,13494 7438,13600C7491,13708 7618,13809 7767,13861C7837,13885 7949,13910 7993,13911C8023,13911 8024,13912 8001,13921C7972,13933 7794,13917 7707,13895C7491,13839 7331,13681 7290,13483C7272,13399 7282,13074 7305,12990C7372,12740 7557,12527 7788,12434C7907,12386 7967,12375 8110,12376C8225,12377 8258,12381 8333,12404C8381,12418 8421,12430 8423,12430C8424,12430 8422,12092 8420,12084C8420,12083 8376,12091 8323,12101C8128,12137 8003,12117 7911,12034C7840,11970 7805,11888 7805,11785C7806,11647 7866,11555 8010,11469C8094,11419 8220,11368 8333,11339L8420,11316L8420,10498L8353,10505C7972,10541 7460,10627 7145,10708L7075,10726L7072,12803C7071,13945 7073,14880 7078,14880C7082,14880 7102,14868 7123,14854ZM11360,13532L11360,12184L11518,12156C11725,12118 12017,12045 12213,11980C12693,11823 13052,11621 13303,11366C13458,11209 13520,11074 13528,10878C13535,10691 13494,10556 13386,10413C13312,10315 13125,10167 12932,10053C12834,9995 12561,9857 12522,9845C12503,9840 12489,9847 12451,9883C12396,9934 12377,9946 12312,9966C12238,9988 12218,9983 12272,9955C12335,9922 12412,9842 12444,9778C12475,9714 12500,9606 12500,9529L12500,9472L12537,9491C12639,9543 12779,9488 12831,9375C12856,9321 12856,9206 12830,9105C12785,8930 12694,8802 12573,8744C12460,8690 12268,8704 12209,8772C12176,8809 12140,8893 12124,8972C12112,9028 12109,9085 12113,9213C12115,9305 12114,9377 12109,9373C12093,9356 12050,9208 12039,9133C12021,9004 12049,8870 12115,8773L12150,8721L12098,8705C12033,8686 11948,8686 11883,8705C11788,8733 11754,8778 11719,8927C11700,9005 11698,9034 11704,9180C11707,9271 11712,9361 11715,9380L11722,9415L11695,9372C11596,9213 11584,8967 11665,8792C11679,8762 11690,8736 11690,8733C11690,8730 11660,8730 11623,8732C11452,8742 11319,8866 11274,9056C11246,9175 11263,9392 11315,9565C11318,9576 11305,9554 11285,9515L11250,9445L11250,9588C11250,9747 11245,9737 11327,9754C11354,9760 11359,9758 11362,9739C11364,9720 11372,9728 11408,9783C11485,9902 11619,10002 11760,10045C11794,10055 11859,10063 11930,10065C12026,10068 12064,10074 12165,10104C12598,10232 12979,10469 13074,10670C13101,10727 13105,10746 13105,10820C13105,10891 13100,10914 13078,10963C13011,11106 12746,11311 12465,11437C12168,11570 11857,11647 11418,11695L11361,11701L11360,11218C11360,10953 11356,10733 11352,10729C11328,10707 10799,10599 10500,10556C10353,10535 10056,10500 10020,10500C10013,10500 10010,10676 10010,11039L10010,11578L10073,11641C10109,11678 10152,11737 10175,11780C10214,11853 10215,11857 10215,11955C10215,12036 10211,12064 10193,12102C10166,12161 10098,12236 10048,12261C10013,12279 10010,12283 10010,12325L10010,12370L10058,12370C10128,12370 10225,12388 10310,12416C10432,12457 10524,12515 10625,12615C10717,12707 10764,12776 10806,12878C10827.3,12930.7 10840.7,12969.4 10849.4,13013.6C10860.7,13070.9 10864.2,13137.5 10867,13256C10872,13451 10872,13458 10851,13479C10830,13500 10824,13500 10420,13500L10010,13500L10010,14108L10033,14114C10070,14124 10312,14121 10376,14109C10614,14066 10815,13945 10956,13757C10994,13706 11000,13701 10995,13726C10992,13742 10968,13797 10943,13849C10784,14171 10386,14312 10028,14175C10011,14168 10010,14179 10010,14314C10010,14457 10010,14460 10033,14464C10045,14466 10118,14478 10195,14490C10626,14556 11047,14692 11290,14844C11320,14863 11348,14879 11353,14879C11357,14880 11360,14273 11360,13532ZM8785,14430C8857,14425 9050,14421 9215,14421C9486,14421 9616,14426 9853,14446L9930,14453L9930,14286C9930,14195 9926,14120 9922,14120C9917,14120 9905,14113 9894,14104C9876,14089 9876,14089 9903,14093L9930,14097L9930,14014C9930,13968 9927,13930 9923,13930C9847,13926 9697,13907 9648,13895C9434,13840 9270,13679 9229,13483C9213,13405 9223,13088 9244,13002C9321,12694 9586,12441 9893,12385C9927,12378 9930,12375 9930,12342L9930,12307L9880,12313C9800,12323 9715,12303 9545,12235C9324,12147 9151,12103 8938,12080C8833,12069 8542,12066 8516,12076C8502,12081 8500,12107 8500,12259L8501,12435L8551,12375L8540,12403C8524,12449 8528,12550 8549,12597C8574,12652 8640,12715 8695,12736C8765,12762 8865,12753 8929,12712L8981,12680L8963,12712C8947,12739 8906,12775 8854,12806C8837,12816 8838,12820 8863,12881C8912,12998 8921,13054 8927,13255C8932,13439 8932,13446 8911,13472L8889,13500L8697,13502L8505,13505L8502,13979L8500,14453L8577,14446C8620,14442 8714,14435 8785,14430ZM9930,13910L9930,13500L9641,13500C9481,13500 9349,13504 9346,13508C9343,13513 9356,13550 9376,13590C9448,13741 9603,13845 9830,13896C9860,13902 9895,13908 9908,13909L9930,13910ZM4330,13814C4417,13772 4506,13704 4617,13592C4707,13501 4846,13335 4915,13235L4950,13185L4890,13069C4832,12956 4829,12952 4783,12935C4657,12887 4571,12791 4554,12678L4547,12635L4585,12682C4645,12758 4779,12850 4870,12879C4903,12889 4908,12897 4945,12992C4991,13111 5066,13229 5174,13353C5252,13441 5349,13529 5398,13554C5526,13620 5704,13540 5745,13397C5774,13295 5754,13235 5645,13105C5512,12946 5379,12726 5284,12506L5228,12377L5220,12196C5201,11744 5262,11299 5373,11085C5472,10895 5671,10752 5881,10719C6144,10678 6474,10823 6773,11109C6851,11184 6850,11184 6895,11085C6941,10982 6953,10853 6925,10745C6907,10675 6896,10664 6740,10559C6557,10435 6310,10329 6137,10299C6034,10282 5814,10292 5715,10319C5538,10368 5373,10468 5243,10603C5116,10736 5032,10883 4991,11046C4940,11245 4895,11583 4885,11835C4882,11912 4877,12004 4875,12040L4870,12106L4918,12141C4962,12174 5023,12245 5066,12315L5085,12345L5047,12317C4896,12203 4753,12122 4640,12084C4557,12056 4398,12059 4300,12089C4203,12119 4182,12130 3993,12251C3645,12475 3570,12529 3540,12576C3466,12694 3481,12824 3579,12913C3645,12972 3685,12974 3800,12919C3882,12880 3963,12825 4069,12737L4153,12666L4124,12721C4108,12751 4055,12816 4005,12866C3882,12991 3779,13039 3636,13040C3578,13040 3576,13041 3504,13105C3415,13185 3386,13239 3387,13325C3387,13358 3394,13401 3402,13421C3426,13477 3485,13535 3542,13560C3614,13591 3732,13585 3806,13547C3864,13518 4074,13326 4268,13126C4390,13000 4399,12993 4371,13042C4277,13207 4082,13433 3940,13542C3862,13601 3861,13605 3908,13694C3986,13838 4169,13890 4330,13814ZM7370,13426C7370,13423 7366,13418 7360,13415C7355,13412 7350,13414 7350,13419C7350,13425 7355,13430 7360,13430C7366,13430 7370,13428 7370,13426ZM8851,13303C8851,13232 8851,13155 8850,13131C8848,13072 8816,12950 8786,12884C8763,12834 8761,12832 8713,12825C8652,12817 8570,12771 8536,12727C8505,12686 8480,12619 8480,12575C8480,12545 8476,12541 8409,12511C8328,12475 8246,12454 8145,12446C8063,12438 8032,12450 8080,12470C8126,12489 8218,12563 8262,12616C8341,12711 8396,12845 8402,12955L8405,13005L8263,13008C8184,13009 8120,13014 8121,13018C8121,13022 8175,13072 8241,13129C8306,13186 8360,13237 8360,13242C8360,13260 8309,13355 8279,13393L8249,13430L8850,13430L8851,13303ZM10797,13253C10791,13049 10774,12975 10710,12850C10585,12610 10351,12461 10077,12446C10028,12443 9992,12444 9995,12449C9998,12454 10025,12472 10056,12490C10142,12538 10232,12636 10280,12733C10318,12811 10349,12922 10350,12982L10350,13009L10056,13015L10180,13124C10249,13185 10306,13235 10308,13236C10315,13240 10260,13339 10226,13383L10190,13430L10803,13430L10797,13253ZM6602,13044C6656,13024 6698,13004 6695,13000C6693,12996 6671,12986 6648,12977C6624,12968 6436,12898 6230,12821C6024,12744 5847,12679 5838,12675C5795,12658 5819,12622 6115,12264C6277,12067 6408,11905 6406,11903C6404,11901 6203,11933 5958,11975C5714,12016 5504,12050 5492,12050C5480,12050 5467,12042 5462,12033C5456,12021 5479,11862 5530,11557C5572,11305 5603,11101 5599,11102C5595,11104 5544,11143 5487,11190L5383,11275L5361,11369C5309,11593 5286,11897 5299,12185C5307,12350 5308,12358 5344,12445C5431,12655 5579,12902 5715,13065C5790,13154 5815,13198 5825,13255C5829,13277 5834,13302 5836,13311C5840,13325 5897,13306 6173,13203C6355,13135 6549,13063 6602,13044ZM9556,11846C9631,11826 9707,11782 9762,11727C9813,11676 9865,11587 9856,11565C9848,11544 9698,11476 9571,11436C9212,11323 8783,11303 8430,11384C8376,11397 8375,11397 8378,11431C8384,11489 8438,11594 8488,11643C8514,11668 8562,11702 8595,11717C8650,11743 8664,11745 8776,11745C8894,11745 8898,11744 8968,11709L9040,11674L9094,11726C9152,11782 9226,11825 9300,11846C9361,11863 9493,11863 9556,11846ZM11613,11595C12184,11510 12616,11333 12897,11066C13008,10961 13025,10929 13025,10820C13025,10744 13022,10729 12995,10681C12920,10545 12603,10337 12305,10229C12133,10167 12052,10149 11910,10140C11730,10129 11623,10090 11498,9993L11440,9949L11440,11610L11475,11610C11494,11610 11556,11603 11613,11595ZM9930,11006L9930,10492L9803,10484C9640,10473 8668,10475 8575,10486L8505,10495L8502,10898L8500,11302L8527,11296C8664,11268 8975,11260 9155,11280C9419,11309 9709,11393 9872,11489C9901,11506 9926,11520 9928,11520C9929,11520 9930,11289 9930,11006ZM7211,10611C7658,10504 8207,10428 8729,10399C9042,10382 9699,10392 9998,10419C10447,10460 10933,10537 11262,10621C11304,10631 11343,10640 11349,10640C11357,10640 11360,10581 11360,10455C11360,10353 11356,10270 11352,10270C11348,10270 11256,10250 11147,10226C10749,10136 10329,10075 9860,10038C9602,10018 8769,10021 8505,10043C8088,10078 7660,10141 7330,10216C7245,10235 7151,10256 7123,10263L7070,10274L7070,10457C7070,10558 7074,10640 7079,10640C7084,10640 7143,10627 7211,10611ZM15862,10372C15943,10332 16011,10262 16053,10172L16085,10105L16088,9438L16091,8770L15290,8770L15290,9423C15290,10149 15289,10135 15357,10237C15393,10292 15441,10335 15499,10365C15575,10404 15604,10410 15701,10407C15785,10405 15804,10401 15862,10372ZM7277,10146C7856,10016 8401,9954 9065,9943C9826,9931 10549,10003 11201,10156C11282,10175 11350,10190 11354,10190C11357,10190 11360,10112 11360,10017L11360,9844L11243,9816C10621,9669 10059,9602 9353,9593C8548,9582 7924,9646 7208,9812L7070,9843L7070,10017C7070,10112 7072,10190 7075,10190C7077,10190 7169,10170 7277,10146ZM7228,9725C7694,9618 8217,9547 8735,9519C9052,9502 9699,9513 9995,9539C10365,9572 10664,9614 10973,9676C11071,9696 11154,9710 11156,9707C11165,9699 11160,9308 11151,9245C11112,8975 10965,8742 10739,8591C10564,8473 10267,8338 9980,8245C9900,8219 9817,8192 9795,8184C9755,8170 9755,8170 9790,8176C9878,8190 10168,8267 10296,8311C10578,8407 10784,8509 10913,8616C11014,8700 11115,8838 11166,8962C11176,8989 11187,9010 11190,9010C11193,9010 11203,8988 11212,8962C11222,8935 11243,8894 11259,8869L11289,8825L11258,8770C11149,8575 11001,8440 10794,8345C10646,8277 10137,8113 9975,8081C9684,8024 9586,8015 9220,8015C8888,8015 8818,8020 8590,8057C8406,8087 8242,8130 7990,8215C7611,8342 7461,8420 7329,8557C7227,8661 7165,8761 7120,8890C7076,9020 7070,9082 7070,9431C7070,9612 7071,9760 7073,9760C7075,9760 7144,9744 7228,9725ZM15210,9720L15210,9520L15166,9520C15135,9520 15120,9515 15116,9504C15113,9495 15110,9180 15110,8804C15110,8205 15108,8115 15095,8089C15066,8034 14989,8027 14950,8077C14930,8102 14930,8116 14930,8847C14930,9648 14928,9617 14982,9667C15020,9703 15070,9719 15143,9720L15210,9720ZM16871,9684C16903,9673 16940,9669 16976,9672L17032,9677L17126,9537C17232,9377 17232,9383 17124,9355C16998,9322 16774,9348 16654,9408C16555,9458 16554,9452 16691,9584C16758,9648 16814,9700 16817,9700C16819,9700 16844,9693 16871,9684ZM16700,9306C16846,9258 17050,9249 17163,9286C17190,9295 17214,9300 17217,9297C17220,9294 17197,9069 17166,8798C17136,8527 17082,8054 17048,7748L16986,7191L16939,7171C16849,7132 16704,7089 16545,7055C16375,7019 16280,7004 16280,7013C16280,7016 16316,7340 16360,7732C16366.8,7792.69 16374,7856.6 16381.3,7922.19C16421.5,8280.26 16467.3,8688.71 16491,8900C16519,9150 16543,9361 16545,9368C16548,9377 16560,9374 16587,9356C16608,9342 16659,9320 16700,9306ZM16090,8700L16090,8570L15290,8570L15290,8700L16090,8700ZM16030,8490L16030,6973L15898,6961C15794,6952 15420,6931 15353,6930C15343,6930 15340,7093 15340,7710L15340,8490L16030,8490ZM7945,8109C8003,8093 8084,8036 8129,7979L8168,7930L8125,7788C8101,7709 8045,7521 8000,7370C7955,7219 7917,7094 7916,7092C7914,7091 7882,7110 7844,7135C7763,7188 7655,7225 7529,7242C7440,7254 7439,7255 7445,7280C7456,7321 7682,8075 7684,8078C7686,8079 7711,8089 7741,8100C7802,8122 7885,8125 7945,8109ZM10663,8061C10684,8056 10703,8050 10706,8048C10709,8044 10740,7272 10740,7174L10740,7124L10663,7133C10575,7144 10404,7130 10306,7104C10258,7091 10246,7091 10239,7102C10234,7109 10230,7167 10230,7230C10229,7293 10227,7361 10225,7380C10224,7399 10219,7526 10215,7661L10208,7907L10257,7950C10364,8045 10532,8091 10663,8061ZM8660,7966C8859,7938 8988,7930 9225,7930C9523,7930 9772,7955 10024,8010C10073,8021 10116,8028 10118,8025C10124,8019 10199,5928 10194,5919C10192,5916 10158,5908 10118,5901C10012,5882 9811,5831 9765,5811C9715,5789 9673,5740 9664,5695C9661,5677 9677,5159 9701,4546C9724,3932 9741,3428 9738,3425C9735,3422 9441,3415 9084,3410C8496,3401 8186,3394 7538,3374C7372,3369 7320,3370 7320,3379C7320,3389 7450,3840 7625,4440C7925,5465 7912,5419 7905,5474C7892,5577 7851,5623 7696,5709L7602,5760L7636,5873C7668,5982 8116,7481 8227,7851L8282,8036L8414,8009C8486,7995 8597,7975 8660,7966ZM15260,7860L15260,6927L15033,6934C14374,6953 13894,7017 13546,7131C12782,7381 13264,7731 14515,7834C14764,7855 14787,7856 15043,7858L15260,7860ZM16228,7794L16291,7787L16285,7741C16282,7716 16262,7540 16240,7351C16213,7111 16198,7005 16188,6999C16181,6994 16160,6990 16143,6990L16110,6990L16110,7813L16138,7807C16153,7804 16193,7798 16228,7794ZM17182,7429C17191,7397 17190,7385 17171,7346C17158,7321 17131,7286 17109,7269C17063,7232 17064,7226 17085,7395C17093,7461 17100,7519 17100,7524C17100,7546 17171,7463 17182,7429ZM13363,7116C13953,6848 15432,6771 16440,6956C16750,7013 17001,7096 17122,7181C17136,7192 17151,7200 17155,7200C17162,7200 17155,7088 17143,7022C17138,6992 17130,6985 17034,6940C16703,6781 16237,6679 15657,6639C15430,6624 14707,6633 14510,6654C13993,6708 13611,6802 13330,6943L13225,6995L13219,7040C13216,7065 13210,7114 13206,7148L13199,7212L13245,7180C13270,7163 13323,7134 13363,7116ZM7624,7145C7721,7121 7796,7085 7858,7032C7892,7004 7892,7003 7879,6962C7872,6939 7865,6920 7862,6920C7860,6920 7825,6942 7785,6969C7744,6996 7677,7029 7633,7044C7552,7071 7415,7094 7399,7084C7387,7077 7388,7100 7401,7139C7412,7169 7414,7170 7470,7170C7501,7170 7571,7159 7624,7145ZM10705,7052L10745,7045L10751,6913L10603,6918C10479,6921 10438,6919 10353,6901C10298,6889 10249,6880 10246,6880C10243,6880 10240,6909 10240,6944L10240,7008L10328,7029C10376,7040 10426,7051 10440,7053C10484,7060 10663,7059 10705,7052ZM7604,6972C7686,6944 7778,6891 7817,6848L7838,6825L7683,6309L7528,5792L7446,5825C7367,5857 7206,5906 7103,5930C7074,5937 7050,5947 7050,5954C7050,5963 7230,6572 7337,6924L7364,7013L7443,7007C7488,7003 7556,6989 7604,6972ZM13435,6810C13867,6639 14466,6550 15185,6550C15958,6550 16577,6651 17023,6850L17131,6898L17126,6862C17123,6842 17097,6625 17070,6380C17042,6135 16995,5724 16965,5465C16910,4995 16706,3221 16674,2933L16656,2780L13712,2780L13706,2818C13703,2838 13684,2995 13665,3165C13646,3336 13626,3511 13620,3555C13615,3599 13585,3853 13555,4120C13525,4387 13495,4641 13490,4685C13484,4729 13435,5159 13380,5640C13325,6121 13271,6589 13260,6680C13249,6771 13240,6857 13240,6872L13240,6898L13302,6868C13336,6852 13396,6826 13435,6810ZM10689,6836L10754,6825L10757,6730C10759,6678 10764,6516 10770,6370C10775,6224 10780,6068 10780,6022L10780,5940L10598,5939C10497,5939 10385,5936 10348,5932L10281,5924L10276,5975C10270,6029 10250,6634 10250,6737L10250,6799L10343,6819C10489,6852 10578,6856 10689,6836ZM6655,5920C6992,5891 7302,5812 7555,5691C7722,5611 7785,5569 7810,5521C7821,5499 7830,5468 7830,5453C7830,5422 7702,4970 7689,4956C7685,4951 7653,4965 7617,4988C7514,5053 7325,5144 7180,5198C6927,5292 6684,5339 6410,5347C6319,5349 6246,5354 6246,5358C6247,5362 6272,5471 6301,5599C6348,5807 6357,5838 6384,5868C6440,5932 6463,5936 6655,5920ZM10917,5845C11048,5827 11193,5798 11287,5769C11394,5736 11390,5749 11390,5390L11390,5083L11312,5101C11072,5156 10825,5184 10560,5183C10290,5182 10101,5161 9872,5104C9815,5090 9767,5080 9765,5082C9763,5084 9756,5217 9749,5378C9736,5697 9737,5708 9789,5734C9851,5766 10119,5825 10315,5849C10438,5864 10788,5861 10917,5845ZM6750,5236C7049,5180 7346,5065 7596,4909L7667,4864L7563,4505C7505,4307 7405,3963 7341,3740L7223,3335L5628,3332L4033,3330L4047,3417C4104,3772 4332,4093 4657,4273C4845,4377 5016,4420 5237,4420C5398,4420 5507,4401 5647,4348C5776,4299 5843,4257 5936,4165C6070,4032 6137,3892 6163,3688L6177,3585L6184,3670C6200,3856 6147,4044 6041,4178C6018,4206 6000,4232 6000,4235C6000,4244 6098,4232 6220,4208C6345,4184 6488,4136 6586,4087C6693,4033 6736,4025 6804,4044C6894,4071 6917,4101 7001,4312C7059,4458 7074,4505 7073,4546C7072,4645 7014,4711 6851,4800C6661,4903 6477,4952 6274,4952L6154,4953L6187,5104C6206,5187 6227,5258 6233,5263C6240,5268 6328,5269 6430,5266C6570,5263 6648,5255 6750,5236ZM10965,5080C11105,5062 11266,5033 11353,5009L11390,4999L11390,4845L11206,4848C11072,4851 10992,4847 10910,4835C10682,4802 10474,4712 10428,4625C10398,4571 10401,4541 10451,4337C10478,4226 10509,4122 10520,4105C10547,4062 10608,4030 10663,4030C10697,4030 10734,4043 10812,4080C10955,4150 11080,4180 11253,4187L11391,4193L11388,4136L11385,4078L11298,4046C11091,3968 10928,3824 10825,3630C10788,3559 10760,3490 10783,3524C10789,3534 10813,3570 10835,3604C10857,3637 10909,3699 10950,3740C11067,3857 11182,3926 11352,3980C11511,4030 11607,4044 11795,4044C12002,4045 12079,4027 12245,3945C12468,3834 12608,3678 12696,3440C12713,3393 12730,3340 12733,3323L12740,3290L9832,3290L9826,3383C9821,3455 9784,4445 9768,4915L9765,4995L9891,5027C10216,5108 10594,5127 10965,5080ZM6387,4869C6559,4850 6735,4786 6888,4687C7020,4601 7023,4579 6935,4355C6830,4091 6804,4075 6623,4158C6563,4185 6471,4221 6419,4238C6315,4271 6130,4310 6072,4310C6052,4310 6029,4314 6022,4318C6013,4324 6024,4388 6072,4598L6133,4869L6174,4873C6257,4880 6293,4880 6387,4869ZM11359,4764L11390,4758L11390,4270L11308,4270C11116,4270 10942,4232 10783,4155C10730,4129 10677,4110 10657,4110C10598,4110 10584,4137 10529,4351C10485,4520 10481,4548 10491,4574C10518,4638 10708,4723 10892,4754C10977,4768 11302,4775 11359,4764ZM7167,3145L7137,3040L4020,3040L4020,3138C4020,3192 4023,3240 4027,3243C4030,3247 4745,3250 5615,3250L7198,3250L7167,3145ZM12754,3188C12757,3175 12760,3137 12760,3103L12760,3040L9843,3040L9836,3101C9833,3135 9830,3174 9830,3186L9830,3210L12748,3210L12754,3188ZM7110,2958C7110,2951 7099,2910 7087,2867L7064,2790L5555,2790C4726,2790 4045,2791 4044,2793C4038,2799 4022,2955 4026,2962C4029,2966 4724,2970 5571,2970C6796,2970 7110,2967 7110,2958ZM12756,2923C12753,2902 12748,2861 12744,2833L12738,2780L9853,2780L9846,2841C9843,2875 9840,2916 9840,2931L9840,2960L12762,2960L12756,2923Z" style="fill-rule:nonzero;"/>
        </g>
        <g transform="matrix(0.812866,-0.193765,0.192732,0.822349,-587.617,2220.27)">
            <path d="M7685,14190C7516,14154 7347,14035 7265,13896C7232,13840 7181,13704 7205,13735C7318,13885 7393,13950 7525,14016C7663,14084 7747,14102 7920,14103C8045,14103 8145,14093 8208,14074C8217,14071 8201,14084 8173,14103C8083,14162 7973,14193 7840,14196C7777,14198 7707,14195 7685,14190Z" style="fill-rule:nonzero;"/>
        </g>
        <g transform="matrix(0.835264,1.0809e-20,-9.88658e-21,0.845008,1931.05,279.215)">
            <path d="M9668,11250C9632,11228 9389,11169 9256,11148C9143,11131 9066,11127 8868,11126C8732,11125 8631,11121 8643,11117C8713,11091 8859,11067 8980,11063C9134,11057 9250,11069 9378,11106C9461,11130 9643,11211 9685,11244C9707,11261 9695,11265 9668,11250Z" style="fill-rule:nonzero;"/>
        </g>
        <g transform="matrix(0.835264,1.0809e-20,-9.88658e-21,0.845008,1931.05,279.215)">
            <path d="M6885,17366C6844,17348 6827,17325 6799,17253L6775,17191L6706,17175C6620,17155 6604,17147 6585,17110C6553,17048 6572,16996 6649,16935L6701,16895L6699,16810C6697,16715 6706,16688 6750,16665C6796,16641 6831,16647 6903,16690L6970,16730L7032,16704C7134,16661 7196,16674 7226,16746C7239,16777 7238,16788 7221,16855L7202,16931L7252,16990C7308,17058 7320,17101 7296,17148C7276,17187 7233,17210 7182,17210C7099,17210 7082,17218 7044,17282C6993,17365 6944,17391 6885,17366ZM6943,17286C6950,17278 6974,17243 6996,17207L7035,17142L7124,17134C7246,17122 7251,17112 7177,17027C7146,16991 7120,16955 7120,16946C7120,16937 7129,16898 7139,16859C7171,16747 7159,16738 7043,16786L6961,16820L6890,16775C6817,16728 6786,16720 6776,16745C6773,16753 6775,16797 6780,16842L6790,16925L6757,16950C6740,16963 6707,16991 6685,17012C6631,17062 6641,17078 6750,17105L6834,17125L6865,17200C6908,17308 6914,17314 6943,17286Z" style="fill-rule:nonzero;"/>
        </g>
        <g transform="matrix(0.499054,-1.55963e-19,-1.37687e-19,0.503669,3522.89,-965.893)">
            <path d="M5830,16917C5816,16910 5774,16863 5736,16812L5667,16720L5544,16720C5428,16720 5420,16719 5391,16695C5356,16665 5336,16612 5345,16571C5348,16555 5376,16509 5406,16468C5487,16361 5485,16374 5445,16263C5426,16209 5410,16151 5410,16134C5410,16087 5448,16037 5498,16022C5537,16009 5546,16010 5650,16045L5760,16082L5847,16014C5924,15954 5939,15946 5986,15942C6034,15938 6040,15940 6076,15973L6115,16008L6120,16135L6125,16263L6210,16321C6307,16388 6330,16417 6330,16479C6330,16545 6291,16578 6163,16618L6061,16650L6035,16738C6021,16786 6003,16840 5995,16858C5968,16918 5889,16947 5830,16917ZM5912,16836C5920,16829 5941,16770 5960,16706L5995,16589L6110,16553C6241,16512 6250,16506 6250,16474C6250,16449 6232,16433 6113,16350L6040,16299L6040,16172C6040,15987 6023,15979 5872,16095L5774,16170L5655,16130C5589,16108 5528,16093 5518,16096C5485,16106 5488,16143 5529,16264L5569,16381L5495,16482C5384,16633 5388,16640 5576,16640L5709,16640L5731,16673C5856,16849 5878,16870 5912,16836Z" style="fill-rule:nonzero;"/>
        </g>
        <g transform="matrix(0.608536,6.21983e-18,6.13253e-18,0.666359,4819.12,-805.311)">
            <path d="M15422,16464C15329,16418 15281,16337 15280,16229C15279,15956 15643,15871 15773,16115C15804,16172 15803,16288 15772,16347C15704,16476 15550,16528 15422,16464ZM15635,16385C15732,16329 15750,16189 15672,16107C15633,16066 15595,16049 15540,16048C15416,16048 15328,16160 15360,16279C15373,16329 15435,16395 15482,16409C15527,16423 15587,16413 15635,16385Z" style="fill-rule:nonzero;"/>
        </g>
        <g transform="matrix(0.608536,6.21983e-18,6.13253e-18,0.666359,-2474.09,4230.8)">
            <path d="M15422,16464C15329,16418 15281,16337 15280,16229C15279,15956 15643,15871 15773,16115C15804,16172 15803,16288 15772,16347C15704,16476 15550,16528 15422,16464ZM15635,16385C15732,16329 15750,16189 15672,16107C15633,16066 15595,16049 15540,16048C15416,16048 15328,16160 15360,16279C15373,16329 15435,16395 15482,16409C15527,16423 15587,16413 15635,16385Z" style="fill-rule:nonzero;"/>
        </g>
        <g transform="matrix(0.966237,3.44981e-19,3.47736e-19,1.06775,456.581,-2126.63)">
            <path d="M12621,15324C12437,15275 12291,15114 12260,14929C12254,14889 12250,14597 12250,14161L12250,13457L12058,13256C11755,12940 11750,12934 11750,12906C11750,12869 11791,12827 11826,12828C11842,12828 11947,12852 12059,12880C12171,12908 12263,12930 12265,12928C12266,12926 12283,12890 12303,12846C12369,12706 12494,12607 12648,12574C12748,12553 14773,12554 14873,12575C15045,12611 15189,12742 15240,12909C15259,12970 15260,13006 15260,13949C15260,14814 15258,14933 15244,14981C15194,15153 15063,15281 14893,15325C14809,15347 12703,15346 12621,15324ZM14943,15223C15026,15183 15103,15108 15145,15025L15175,14965L15175,12945L15148,12887C15093,12770 14970,12674 14845,12650C14802,12642 14487,12640 13720,12642C12658,12645 12655,12645 12603,12666C12491,12712 12400,12804 12357,12913C12342,12953 12335,12998 12331,13105L12315,13181.4L12307,13165C12297,13121 12286,13070 12282,13051L12275,13017L12070,12964C11957,12935 11859,12911 11852,12910C11844,12910 11880,12954 11932,13009C11983,13063 12094,13180 12178,13268L12330,13429L12330,14157C12330,14936 12330,14943 12380,15041C12409,15097 12466,15157 12526,15196C12629,15262 12561,15259 13775,15257L14875,15255L14943,15223Z" style="fill-rule:nonzero;"/>
        </g>
        <g transform="matrix(1.05121,1.36036e-20,-1.35536e-20,1.15843,-753.618,-3381.76)">
            <path d="M13657,14965C13371,14910 13134,14714 13050,14460C13019,14367 13012,14216 13034,14116C13081,13906 13233,13722 13442,13622L13520,13585L13520,13525C13520,13469 13518,13464 13490,13448C13448,13424 13420,13373 13420,13322C13420,13265 13442,13225 13489,13196C13518,13178 13529,13162 13534,13137C13558,13008 13725,12903 13864,12929C13985,12951 14080,13037 14104,13145C14108,13163 14124,13183 14142,13195C14194,13228 14215,13265 14215,13323C14215,13384 14187,13431 14140,13452C14111,13464 14110,13468 14110,13526L14110,13586L14165,13609C14255,13647 14360,13721 14433,13800C14702,14091 14671,14529 14363,14785C14285,14850 14126,14930 14030,14954C13936,14978 13752,14983 13657,14965ZM14014,14869C14257,14811 14458,14623 14515,14403C14534,14329 14534,14190 14515,14115C14466,13927 14309,13757 14115,13680C14082,13667 14049,13652 14043,13647C14034,13641 14030,13609 14030,13554L14030,13470L13965,13470L13971,13920L14001,13920C14107,13920 14175,14031 14121,14114C14094,14154 14064,14169 14007,14170C13967,14170 13954,14165 13924,14137C13895,14111 13887,14095 13883,14057L13877,14010L13761,14010L13754,14058C13749,14092 13738,14114 13714,14138C13686,14166 13676,14170 13626,14170C13579,14170 13565,14166 13539,14142C13512,14118 13506,14104 13502,14059C13499,14014 13502,14000 13521,13976C13547,13943 13596,13920 13640,13920L13670,13920L13670,13470L13610,13470L13610,13548C13610,13590 13606,13630 13602,13636C13598,13643 13567,13659 13532,13674C13312,13763 13160,13935 13115,14146C13088,14275 13104,14395 13166,14517C13312,14806 13666,14954 14014,14869ZM13658,14078C13665,14071 13670,14052 13670,14035C13670,14005 13668,14004 13638,14008C13598,14013 13580,14027 13580,14049C13580,14072 13600,14090 13625,14090C13637,14090 13651,14085 13658,14078ZM14044,14074C14063,14056 14063,14054 14050,14029C14042,14016 14029,14010 14005,14010C13973,14010 13970,14013 13970,14038C13970,14087 14012,14107 14044,14074ZM13880,13920L13880,13470L13760,13470L13760,13920L13880,13920ZM14118,13368C14135,13351 14133,13300 14113,13278C14098,13261 14075,13260 13814,13260C13533,13260 13531,13260 13516,13282C13507,13294 13500,13311 13500,13320C13500,13329 13507,13346 13516,13358C13531,13380 13533,13380 13819,13380C14029,13380 14109,13377 14118,13368ZM14020,13160C14020,13140 13992,13095 13963,13068C13855,12965 13673,13005 13621,13143L13610,13170L13815,13170C13952,13170 14020,13166 14020,13160Z" style="fill-rule:nonzero;"/>
        </g>
        <g transform="matrix(0.67956,9.8367e-18,9.76648e-18,0.767981,2032.54,4666.98)">
            <path d="M16386,14580C16328,14562 16303,14525 16280,14421C16238,14234 16254,14257 16132,14210C16073,14187 16015,14162 16002,14154C15968,14132 15940,14080 15940,14040C15940,13979 15969,13948 16093,13876L16208,13808L16215,13679C16223,13534 16236,13498 16291,13468C16329,13448 16381,13445 16411,13461C16422,13466 16474,13509 16526,13555L16621,13638L16728,13609C16787,13593 16857,13580 16884,13580C16927,13580 16937,13584 16971,13619C17026,13674 17024,13709 16959,13860L16908,13979L16970,14075C17005,14128 17038,14187 17045,14207C17068,14273 17035,14343 16969,14371C16946,14380 16914,14380 16826,14371C16764,14365 16705,14360 16694,14360C16681,14360 16647,14393 16596,14454C16554,14506 16509,14555 16497,14563C16466,14583 16420,14590 16386,14580ZM16466,14483C16479,14469 16523,14417 16563,14368L16635,14278L16729,14284C16781,14288 16849,14293 16880,14297C16930,14302 16940,14300 16959,14281C16988,14252 16984,14244 16894,14100L16819,13983L16875,13856C16966,13647 16953,13632 16730,13690C16667,13707 16611,13720 16605,13720C16599,13720 16545,13677 16485,13625C16329,13489 16306,13495 16296,13675C16284,13870 16297,13847 16154,13931C16026,14007 16004,14031 16027,14069C16032,14078 16097,14109 16171,14139C16245,14169 16306,14194 16307,14195C16309,14196 16324,14259 16341,14336C16363,14437 16377,14480 16392,14493C16420,14517 16437,14514 16466,14483Z" style="fill-rule:nonzero;"/>
        </g>
        <g transform="matrix(0.603988,6.62101e-18,6.55742e-18,0.662407,5840.52,1985.63)">
            <path d="M16900,12859C16550,12824 16327,12641 16248,12325C16236,12275 16225,12234 16224,12232C16223,12230 16189,12241 16148,12256C16053,12291 15899,12300 15797,12276C15574,12224 15382,12033 15329,11810C15312,11739 15312,11610 15329,11540C15348,11462 15404,11344 15428,11331C15443,11323 15768,11320 16533,11320C17591,11320 17618,11320 17642,11339C17676,11366 17752,11550 17789,11692C17880,12043 17839,12326 17664,12559C17502,12774 17208,12890 16900,12859ZM17218,12759C17423,12707 17606,12551 17693,12355C17793,12126 17775,11820 17643,11508L17598,11400L15469,11400L15440,11463C15310,11749 15464,12081 15775,12185C15957,12247 16175,12198 16296,12068C16368,11990 16429,11840 16431,11732C16431,11697 16432,11696 16441,11720C16447,11734 16450,11785 16447,11835C16442,11947 16416,12018 16348,12108L16298,12174L16314,12258C16373,12559 16569,12738 16885,12779C16977,12791 17127,12782 17218,12759Z" style="fill-rule:nonzero;"/>
        </g>
        <g transform="matrix(0.835264,1.0809e-20,-9.88658e-21,0.845008,1780.7,279.215)">
            <path d="M14460,11161C14281,11103 14212,10895 14323,10748C14394,10653 14538,10621 14648,10676C14838,10770 14836,11044 14645,11142C14602,11164 14501,11175 14460,11161ZM14603,11076C14641,11060 14697,11000 14706,10964C14710,10950 14710,10915 14708,10885C14695,10731 14507,10667 14399,10780C14313,10870 14334,11004 14445,11071C14481,11093 14556,11096 14603,11076Z" style="fill-rule:nonzero;"/>
        </g>
        <g transform="matrix(0.879842,1.13858e-20,-1.03694e-20,0.886279,1653.97,6287.51)">
            <path d="M4227,9858C4021,9840 3798,9726 3679,9577C3467,9311 3429,8970 3565,8563C3618,8404 3664,8312 3695,8300C3735,8285 5901,8286 5935,8302C5965,8316 6021,8424 6041,8510C6058,8582 6058,8721 6041,8790C5996,8974 5867,9131 5693,9216C5520,9300 5339,9300 5138,9215C5124,9209 5120,9213 5120,9231C5120,9330 5030,9534 4946,9627C4789,9800 4526,9884 4227,9858ZM4525,9765C4675,9736 4786,9676 4883,9571C4968,9478 5017,9373 5040,9228L5052,9155L5001,9100C4905,8996 4859,8877 4861,8735C4862,8643 4877,8573 4879,8650C4885,8861 5006,9060 5180,9142C5396,9245 5622,9210 5796,9047C5978,8878 6026,8643 5925,8423L5901,8370L3729,8370L3695,8443C3610,8632 3566,8825 3567,9015C3568,9250 3632,9412 3780,9560C3877,9657 3944,9700 4065,9742C4203,9789 4360,9797 4525,9765Z" style="fill-rule:nonzero;"/>
        </g>
        <g transform="matrix(0.835264,1.0809e-20,-9.88658e-21,0.845008,1931.05,279.215)">
            <path d="M11594,7921C11539,7896 11493,7838 11479,7774C11458,7679 11506,7580 11595,7539C11674,7502 11768,7518 11833,7579C11971,7706 11874,7940 11685,7940C11658,7940 11617,7931 11594,7921ZM11771,7834C11833,7778 11836,7687 11777,7633C11731,7591 11683,7582 11633,7606C11486,7679 11552,7889 11713,7859C11734,7856 11760,7844 11771,7834Z" style="fill-rule:nonzero;"/>
        </g>
        <g transform="matrix(0.835264,1.0809e-20,-9.88658e-21,0.845008,-129.175,1612.42)">
            <path d="M3357,7636C3214,7597 3132,7451 3173,7309C3206,7196 3303,7125 3425,7125C3485,7125 3503,7129 3550,7156C3698,7240 3730,7432 3615,7559C3551,7630 3448,7661 3357,7636ZM3495,7551C3635,7488 3646,7301 3516,7225C3393,7153 3240,7242 3240,7386C3240,7518 3376,7606 3495,7551Z" style="fill-rule:nonzero;"/>
        </g>
        <g transform="matrix(0.835264,1.0809e-20,-9.88658e-21,0.845008,1363.37,-370.919)">
            <path d="M5263,7370C5221,7345 5208,7316 5180,7190C5168,7132 5154,7078 5149,7069C5145,7060 5113,7043 5078,7030C4897,6965 4850,6928 4850,6849C4850,6790 4885,6753 5005,6680L5115,6614L5126,6477C5134,6366 5140,6335 5156,6313C5185,6275 5217,6260 5272,6260C5322,6260 5331,6266 5507,6423C5529,6442 5530,6442 5661,6410C5785,6379 5796,6378 5834,6391C5884,6408 5920,6458 5920,6511C5920,6534 5900,6594 5870,6666L5820,6783L5890,6895C5948,6987 5960,7014 5960,7049C5960,7109 5936,7148 5887,7170C5848,7186 5834,7187 5716,7176L5588,7164L5507,7260C5463,7312 5415,7363 5401,7372C5366,7396 5303,7395 5263,7370ZM5456,7195C5509,7132 5555,7080 5559,7080C5562,7080 5628,7087 5705,7095L5845,7110L5867,7085C5881,7069 5887,7053 5883,7042C5880,7033 5844,6972 5803,6908L5729,6790L5785,6661C5844,6522 5849,6500 5824,6476C5804,6455 5811,6454 5649,6495L5508,6531L5409,6444C5354,6397 5307,6354 5304,6349C5301,6344 5283,6340 5264,6340C5218,6340 5213,6354 5201,6525C5196,6602 5187,6666 5183,6667C5179,6669 5121,6703 5055,6743C4957,6803 4934,6821 4932,6842C4930,6856 4936,6874 4944,6882C4952,6891 5017,6921 5089,6949L5218,7002L5245,7118C5288,7307 5288,7307 5337,7309C5354,7310 5384,7280 5456,7195Z" style="fill-rule:nonzero;"/>
        </g>
        <g transform="matrix(0.701885,9.03406e-18,8.96765e-18,0.783991,-426.883,6925.24)">
            <path d="M5263,7370C5221,7345 5208,7316 5180,7190C5168,7132 5154,7078 5149,7069C5145,7060 5113,7043 5078,7030C4897,6965 4850,6928 4850,6849C4850,6790 4885,6753 5005,6680L5115,6614L5126,6477C5134,6366 5140,6335 5156,6313C5185,6275 5217,6260 5272,6260C5322,6260 5331,6266 5507,6423C5529,6442 5530,6442 5661,6410C5785,6379 5796,6378 5834,6391C5884,6408 5920,6458 5920,6511C5920,6534 5900,6594 5870,6666L5820,6783L5890,6895C5948,6987 5960,7014 5960,7049C5960,7109 5936,7148 5887,7170C5848,7186 5834,7187 5716,7176L5588,7164L5507,7260C5463,7312 5415,7363 5401,7372C5366,7396 5303,7395 5263,7370ZM5456,7195C5509,7132 5555,7080 5559,7080C5562,7080 5628,7087 5705,7095L5845,7110L5867,7085C5881,7069 5887,7053 5883,7042C5880,7033 5844,6972 5803,6908L5729,6790L5785,6661C5844,6522 5849,6500 5824,6476C5804,6455 5811,6454 5649,6495L5508,6531L5409,6444C5354,6397 5307,6354 5304,6349C5301,6344 5283,6340 5264,6340C5218,6340 5213,6354 5201,6525C5196,6602 5187,6666 5183,6667C5179,6669 5121,6703 5055,6743C4957,6803 4934,6821 4932,6842C4930,6856 4936,6874 4944,6882C4952,6891 5017,6921 5089,6949L5218,7002L5245,7118C5288,7307 5288,7307 5337,7309C5354,7310 5384,7280 5456,7195Z" style="fill-rule:nonzero;"/>
        </g>
        <g transform="matrix(0.835264,1.0809e-20,-9.88658e-21,0.845008,12283.1,5919.5)">
            <path d="M5263,7370C5221,7345 5208,7316 5180,7190C5168,7132 5154,7078 5149,7069C5145,7060 5113,7043 5078,7030C4897,6965 4850,6928 4850,6849C4850,6790 4885,6753 5005,6680L5115,6614L5126,6477C5134,6366 5140,6335 5156,6313C5185,6275 5217,6260 5272,6260C5322,6260 5331,6266 5507,6423C5529,6442 5530,6442 5661,6410C5785,6379 5796,6378 5834,6391C5884,6408 5920,6458 5920,6511C5920,6534 5900,6594 5870,6666L5820,6783L5890,6895C5948,6987 5960,7014 5960,7049C5960,7109 5936,7148 5887,7170C5848,7186 5834,7187 5716,7176L5588,7164L5507,7260C5463,7312 5415,7363 5401,7372C5366,7396 5303,7395 5263,7370ZM5456,7195C5509,7132 5555,7080 5559,7080C5562,7080 5628,7087 5705,7095L5845,7110L5867,7085C5881,7069 5887,7053 5883,7042C5880,7033 5844,6972 5803,6908L5729,6790L5785,6661C5844,6522 5849,6500 5824,6476C5804,6455 5811,6454 5649,6495L5508,6531L5409,6444C5354,6397 5307,6354 5304,6349C5301,6344 5283,6340 5264,6340C5218,6340 5213,6354 5201,6525C5196,6602 5187,6666 5183,6667C5179,6669 5121,6703 5055,6743C4957,6803 4934,6821 4932,6842C4930,6856 4936,6874 4944,6882C4952,6891 5017,6921 5089,6949L5218,7002L5245,7118C5288,7307 5288,7307 5337,7309C5354,7310 5384,7280 5456,7195Z" style="fill-rule:nonzero;"/>
        </g>
        <g transform="matrix(0.608536,6.21983e-18,6.13253e-18,0.666359,7070.59,-2222.02)">
            <path d="M15422,16464C15329,16418 15281,16337 15280,16229C15279,15956 15643,15871 15773,16115C15804,16172 15803,16288 15772,16347C15704,16476 15550,16528 15422,16464ZM15635,16385C15732,16329 15750,16189 15672,16107C15633,16066 15595,16049 15540,16048C15416,16048 15328,16160 15360,16279C15373,16329 15435,16395 15482,16409C15527,16423 15587,16413 15635,16385Z" style="fill-rule:nonzero;"/>
        </g>
        <g transform="matrix(0.945855,-4.5267e-18,-4.52548e-18,0.919714,954.463,2252.7)">
            <path d="M3357,7636C3214,7597 3132,7451 3173,7309C3206,7196 3303,7125 3425,7125C3485,7125 3503,7129 3550,7156C3698,7240 3730,7432 3615,7559C3551,7630 3448,7661 3357,7636ZM3495,7551C3635,7488 3646,7301 3516,7225C3393,7153 3240,7242 3240,7386C3240,7518 3376,7606 3495,7551Z" style="fill-rule:nonzero;"/>
        </g>
        <g transform="matrix(1.07488,6.08474e-20,3.39599e-20,1.0878,-124.853,-1099.71)">
            <path d="M3357,7636C3214,7597 3132,7451 3173,7309C3206,7196 3303,7125 3425,7125C3485,7125 3503,7129 3550,7156C3698,7240 3730,7432 3615,7559C3551,7630 3448,7661 3357,7636ZM3495,7551C3635,7488 3646,7301 3516,7225C3393,7153 3240,7242 3240,7386C3240,7518 3376,7606 3495,7551Z" style="fill-rule:nonzero;"/>
        </g>
        <g transform="matrix(0.642093,0.173542,-0.144399,0.543395,10550.4,-3999.83)">
            <path d="M5830,16917C5816,16910 5774,16863 5736,16812L5667,16720L5544,16720C5428,16720 5420,16719 5391,16695C5356,16665 5336,16612 5345,16571C5348,16555 5376,16509 5406,16468C5487,16361 5485,16374 5445,16263C5426,16209 5410,16151 5410,16134C5410,16087 5448,16037 5498,16022C5537,16009 5546,16010 5650,16045L5760,16082L5847,16014C5924,15954 5939,15946 5986,15942C6034,15938 6040,15940 6076,15973L6115,16008L6120,16135L6125,16263L6210,16321C6307,16388 6330,16417 6330,16479C6330,16545 6291,16578 6163,16618L6061,16650L6035,16738C6021,16786 6003,16840 5995,16858C5968,16918 5889,16947 5830,16917ZM5912,16836C5920,16829 5941,16770 5960,16706L5995,16589L6110,16553C6241,16512 6250,16506 6250,16474C6250,16449 6232,16433 6113,16350L6040,16299L6040,16172C6040,15987 6023,15979 5872,16095L5774,16170L5655,16130C5589,16108 5528,16093 5518,16096C5485,16106 5488,16143 5529,16264L5569,16381L5495,16482C5384,16633 5388,16640 5576,16640L5709,16640L5731,16673C5856,16849 5878,16870 5912,16836Z" style="fill-rule:nonzero;"/>
        </g>
        <g transform="matrix(0.441297,0.292235,-0.331382,0.508961,9828.03,3184.21)">
            <path d="M16386,14580C16328,14562 16303,14525 16280,14421C16238,14234 16254,14257 16132,14210C16073,14187 16015,14162 16002,14154C15968,14132 15940,14080 15940,14040C15940,13979 15969,13948 16093,13876L16208,13808L16215,13679C16223,13534 16236,13498 16291,13468C16329,13448 16381,13445 16411,13461C16422,13466 16474,13509 16526,13555L16621,13638L16728,13609C16787,13593 16857,13580 16884,13580C16927,13580 16937,13584 16971,13619C17026,13674 17024,13709 16959,13860L16908,13979L16970,14075C17005,14128 17038,14187 17045,14207C17068,14273 17035,14343 16969,14371C16946,14380 16914,14380 16826,14371C16764,14365 16705,14360 16694,14360C16681,14360 16647,14393 16596,14454C16554,14506 16509,14555 16497,14563C16466,14583 16420,14590 16386,14580ZM16466,14483C16479,14469 16523,14417 16563,14368L16635,14278L16729,14284C16781,14288 16849,14293 16880,14297C16930,14302 16940,14300 16959,14281C16988,14252 16984,14244 16894,14100L16819,13983L16875,13856C16966,13647 16953,13632 16730,13690C16667,13707 16611,13720 16605,13720C16599,13720 16545,13677 16485,13625C16329,13489 16306,13495 16296,13675C16284,13870 16297,13847 16154,13931C16026,14007 16004,14031 16027,14069C16032,14078 16097,14109 16171,14139C16245,14169 16306,14194 16307,14195C16309,14196 16324,14259 16341,14336C16363,14437 16377,14480 16392,14493C16420,14517 16437,14514 16466,14483Z" style="fill-rule:nonzero;"/>
        </g>
        <g transform="matrix(0.495263,1.28091e-17,1.27272e-17,0.605899,2077.55,5916.8)">
            <path d="M16386,14580C16328,14562 16303,14525 16280,14421C16238,14234 16254,14257 16132,14210C16073,14187 16015,14162 16002,14154C15968,14132 15940,14080 15940,14040C15940,13979 15969,13948 16093,13876L16208,13808L16215,13679C16223,13534 16236,13498 16291,13468C16329,13448 16381,13445 16411,13461C16422,13466 16474,13509 16526,13555L16621,13638L16728,13609C16787,13593 16857,13580 16884,13580C16927,13580 16937,13584 16971,13619C17026,13674 17024,13709 16959,13860L16908,13979L16970,14075C17005,14128 17038,14187 17045,14207C17068,14273 17035,14343 16969,14371C16946,14380 16914,14380 16826,14371C16764,14365 16705,14360 16694,14360C16681,14360 16647,14393 16596,14454C16554,14506 16509,14555 16497,14563C16466,14583 16420,14590 16386,14580ZM16466,14483C16479,14469 16523,14417 16563,14368L16635,14278L16729,14284C16781,14288 16849,14293 16880,14297C16930,14302 16940,14300 16959,14281C16988,14252 16984,14244 16894,14100L16819,13983L16875,13856C16966,13647 16953,13632 16730,13690C16667,13707 16611,13720 16605,13720C16599,13720 16545,13677 16485,13625C16329,13489 16306,13495 16296,13675C16284,13870 16297,13847 16154,13931C16026,14007 16004,14031 16027,14069C16032,14078 16097,14109 16171,14139C16245,14169 16306,14194 16307,14195C16309,14196 16324,14259 16341,14336C16363,14437 16377,14480 16392,14493C16420,14517 16437,14514 16466,14483Z" style="fill-rule:nonzero;"/>
        </g>
        <g transform="matrix(0.333124,0.220601,-0.206476,0.317122,972.873,784.008)">
            <path d="M16386,14580C16328,14562 16303,14525 16280,14421C16238,14234 16254,14257 16132,14210C16073,14187 16015,14162 16002,14154C15968,14132 15940,14080 15940,14040C15940,13979 15969,13948 16093,13876L16208,13808L16215,13679C16223,13534 16236,13498 16291,13468C16329,13448 16381,13445 16411,13461C16422,13466 16474,13509 16526,13555L16621,13638L16728,13609C16787,13593 16857,13580 16884,13580C16927,13580 16937,13584 16971,13619C17026,13674 17024,13709 16959,13860L16908,13979L16970,14075C17005,14128 17038,14187 17045,14207C17068,14273 17035,14343 16969,14371C16946,14380 16914,14380 16826,14371C16764,14365 16705,14360 16694,14360C16681,14360 16647,14393 16596,14454C16554,14506 16509,14555 16497,14563C16466,14583 16420,14590 16386,14580ZM16466,14483C16479,14469 16523,14417 16563,14368L16635,14278L16729,14284C16781,14288 16849,14293 16880,14297C16930,14302 16940,14300 16959,14281C16988,14252 16984,14244 16894,14100L16819,13983L16875,13856C16966,13647 16953,13632 16730,13690C16667,13707 16611,13720 16605,13720C16599,13720 16545,13677 16485,13625C16329,13489 16306,13495 16296,13675C16284,13870 16297,13847 16154,13931C16026,14007 16004,14031 16027,14069C16032,14078 16097,14109 16171,14139C16245,14169 16306,14194 16307,14195C16309,14196 16324,14259 16341,14336C16363,14437 16377,14480 16392,14493C16420,14517 16437,14514 16466,14483Z" style="fill-rule:nonzero;"/>
        </g>
    </g>
</svg>
