<?xml version="1.0" standalone="no"?>
<!DOCTYPE svg PUBLIC "-//W3C//DTD SVG 20010904//EN"
 "http://www.w3.org/TR/2001/REC-SVG-20010904/DTD/svg10.dtd">
<svg version="1.0" xmlns="http://www.w3.org/2000/svg"
 width="1024.000000pt" height="1024.000000pt" viewBox="0 0 1024.000000 1024.000000"
 preserveAspectRatio="xMidYMid meet">

<g transform="translate(0.000000,1024.000000) scale(0.100000,-0.100000)"
fill="#000000" stroke="none">
<path d="M5306 9385 c-211 -40 -425 -141 -589 -277 l-48 -40 -22 20 c-47 43
-168 113 -263 151 -164 66 -278 86 -489 86 -184 -1 -243 -8 -365 -47 -176 -56
-328 -143 -460 -265 -69 -64 -182 -207 -241 -306 l-26 -44 -99 -6 c-287 -16
-557 -179 -733 -443 -197 -294 -232 -656 -98 -1024 3 -10 -25 -42 -86 -95
-362 -320 -533 -869 -397 -1278 67 -199 200 -374 382 -503 77 -54 193 -114
223 -114 11 0 15 -11 15 -39 0 -99 32 -281 70 -394 91 -272 256 -466 533 -626
49 -28 91 -51 94 -51 2 0 39 -15 81 -33 442 -193 1065 -252 1842 -176 117 11
278 34 357 50 51 10 53 10 100 -26 125 -95 169 -122 318 -195 228 -112 423
-171 685 -211 160 -24 492 -29 664 -10 487 53 906 241 1128 505 63 75 141 224
157 301 5 28 13 78 17 112 l6 63 41 10 c302 78 560 291 693 574 110 236 117
571 17 881 -22 70 -86 198 -140 278 l-45 67 51 103 c30 61 61 146 78 212 25
99 28 126 28 275 -1 140 -4 178 -24 250 -27 103 -101 253 -171 349 -95 131
-286 297 -436 380 l-40 22 0 162 c0 115 -5 183 -17 234 -119 518 -627 832
-1252 774 -144 -13 -297 -50 -407 -97 -45 -19 -82 -33 -84 -32 -1 2 -25 37
-52 78 -60 91 -152 185 -235 242 -80 54 -232 121 -327 143 -103 24 -330 29
-434 10z m442 -224 c180 -45 348 -152 440 -280 46 -62 49 -71 37 -87 -31 -41
-8 -94 40 -94 15 0 31 10 40 24 25 38 200 96 367 121 123 19 337 19 448 1 432
-70 761 -364 826 -737 20 -119 12 -239 -16 -239 -22 0 -36 -17 -45 -52 -5 -21
-2 -29 15 -38 12 -6 32 -9 44 -6 42 10 180 -79 291 -189 118 -116 173 -191
244 -331 75 -146 102 -262 108 -449 4 -136 2 -159 -20 -246 -14 -53 -40 -128
-58 -167 -28 -59 -38 -72 -62 -78 -38 -8 -54 -48 -31 -81 12 -19 22 -24 41
-20 20 4 32 -4 65 -46 118 -150 173 -339 171 -587 -1 -132 -5 -170 -26 -252
-65 -245 -207 -450 -406 -582 -76 -51 -185 -100 -255 -116 -33 -7 -44 -5 -64
11 -30 23 -50 24 -74 2 -22 -20 -23 -56 -3 -73 20 -17 20 -129 0 -219 -32
-137 -161 -307 -308 -405 -195 -129 -456 -218 -787 -268 -116 -18 -595 -17
-715 0 -107 16 -339 71 -448 107 -129 43 -397 175 -397 196 0 4 17 10 38 14
47 8 130 33 161 48 36 18 48 52 26 77 -22 24 -59 25 -175 5 -302 -53 -634 -84
-1000 -92 -632 -13 -1099 66 -1465 249 -368 185 -600 503 -630 866 -6 63 -4
82 6 82 19 0 49 31 49 52 0 10 -9 27 -20 38 -16 16 -28 19 -54 14 -28 -5 -50
2 -123 40 -213 112 -357 282 -435 516 -31 92 -32 101 -32 270 -1 195 11 268
69 420 57 149 117 249 224 369 85 96 157 154 183 145 27 -8 68 22 68 50 0 26
-15 42 -45 47 -14 3 -24 21 -37 63 -57 185 -51 420 13 616 80 239 292 482 504
576 127 55 295 84 295 49 0 -17 30 -35 59 -35 28 0 51 37 44 71 -10 52 125
221 272 340 140 113 277 179 477 230 111 28 138 32 278 32 168 1 279 -15 403
-58 123 -44 262 -133 253 -164 -7 -20 2 -35 32 -50 30 -16 58 0 65 37 16 77
317 228 542 272 136 26 371 22 493 -9z"/>
<path d="M6590 3119 c-75 -14 -209 -87 -274 -148 -199 -188 -261 -481 -153
-724 75 -171 233 -305 412 -352 89 -23 247 -20 331 6 199 61 355 215 421 413
22 68 26 99 27 191 0 174 -52 306 -171 434 -51 56 -82 79 -161 119 -55 29
-122 55 -156 61 -69 13 -211 13 -276 0z m226 -170 c138 -25 249 -111 314 -242
48 -97 60 -182 41 -293 -56 -321 -445 -472 -709 -275 -128 95 -189 232 -180
402 7 119 50 211 137 292 114 105 246 144 397 116z"/>
<path d="M7758 1730 c-87 -15 -184 -68 -245 -134 -194 -210 -149 -534 96 -680
69 -41 133 -57 228 -57 317 0 530 337 395 624 -55 118 -179 215 -309 242 -74
16 -95 17 -165 5z m190 -186 c108 -54 171 -167 158 -283 -28 -237 -323 -333
-483 -158 -57 61 -73 104 -73 192 0 85 16 129 68 187 80 89 222 116 330 62z"/>
</g>
</svg>
